<svg width="80" height="80" viewBox="0 0 80 80" fill="none" xmlns="http://www.w3.org/2000/svg">
<path d="M7.57605 32.9879V30.4468L11.3879 15.1996L26.635 2.49376L40.6116 1.22314L55.8586 7.57606L59.6705 13.9291L49.5057 8.84667H40.6116L26.635 17.7408L22.8233 26.635V32.9879H7.57605Z" fill="#5EEAD4"/>
<path d="M32.988 52.0468H39.3409L45.6939 58.3999V67.294L49.5057 72.3763L53.2662 79.9999H54.4088H73.6469V39.3914L45.6939 39.341H32.988V52.0468Z" fill="#EF4444"/>
<path d="M73.6471 40.6116H60.9411V80H73.6471V40.6116Z" fill="#F87171"/>
<path d="M24.0939 31.7174H7.57605V77.4588H24.0939V59.6703L26.635 55.8586L32.988 53.3174V46.9645L35.5291 43.1526H43.1526L54.588 31.7174H24.0939Z" fill="#EF4444"/>
<path d="M12.6583 69.8351H7.57605V78.7292H12.6583V69.8351Z" fill="#FECACA"/>
<path d="M21.5527 39.341V48.2351L24.7291 49.5057L27.9056 46.9645V39.341H21.5527Z" fill="#F39200"/>
<path d="M44.4234 43.2003H32.988V45.6466H44.4234V43.2003Z" fill="#1F2937"/>
<path d="M48.2351 39.3884H36.7997V41.8347H48.2351V39.3884Z" fill="#1F2937"/>
<path d="M52.047 35.5766H40.6116V38.0229H52.047V35.5766Z" fill="#1F2937"/>
<path d="M27.9055 39.3409V46.3292C27.9055 48.0836 26.4834 49.5057 24.7291 49.5057C22.9747 49.5057 21.5526 48.0836 21.5526 46.3292V39.3409" fill="#FECACA"/>
<path d="M24.7291 50.7289C22.3032 50.7289 20.3295 48.755 20.3295 46.3291V39.3408H22.7758V46.3291C22.7758 47.4061 23.6521 48.2826 24.7291 48.2826C25.8061 48.2826 26.6824 47.4063 26.6824 46.3291V39.3408H29.1287V46.3291C29.1287 48.755 27.155 50.7289 24.7291 50.7289Z" fill="#1F2937"/>
<path d="M16.4702 47.0119H12.6585V49.4583H16.4702V47.0119Z" fill="white"/>
<path d="M6.35291 79.9524H25.3169V63.4822C25.3169 59.2523 28.758 55.8112 32.9879 55.8112H34.211V46.9645H31.7647V53.4384C26.7609 54.0443 22.8706 58.3175 22.8706 63.4822V77.5061H13.8817V69.8825H10.1173V72.3288H11.4354V77.5061H8.79922V46.917H17.7408V44.4707H8.79922V34.2112H55.8586V31.7649H6.35291V79.9524Z" fill="#1F2937"/>
<path d="M67.2466 30.4467C67.2466 30.25 67.2441 30.0538 67.239 29.8584C66.9243 13.3407 53.3914 0 36.7997 0C20.0113 0 6.35291 13.6584 6.35291 30.4467H8.79922C8.79922 30.0049 8.8108 29.5657 8.83118 29.1287H17.7408V26.6824H9.05315C9.11512 26.2237 9.18802 25.7685 9.27185 25.3169H15.1996V22.8706H9.84135C9.97084 22.4107 10.1111 21.9553 10.2633 21.5052H12.6585V19.0589H11.2219C15.5933 9.27887 25.4131 2.44631 36.7997 2.44631C45.1798 2.44631 52.7107 6.14775 57.8467 12.0005C54.0769 9.24967 49.4367 7.62353 44.4233 7.62353C31.8384 7.62353 21.6001 17.8618 21.6001 30.4467H24.0464C24.0464 19.2107 33.1875 10.0698 44.4233 10.0698C55.4835 10.0698 64.514 18.9275 64.7935 29.9215C64.7968 30.0963 64.8002 30.2712 64.8002 30.4468L67.2466 30.4467Z" fill="#1F2937"/>
<path d="M73.6469 39.3884H50.7763V41.8347H73.6469V39.3884Z" fill="#1F2937"/>
<path d="M46.9171 68.5646H44.4707V60.9409C44.4707 56.7113 41.0296 53.2701 36.7997 53.2701V50.8238C42.3785 50.8238 46.9171 55.3624 46.9171 60.9409V68.5646Z" fill="#1F2937"/>
<path d="M50.7289 66.0234H48.2826V72.3763H50.7289V66.0234Z" fill="#1F2937"/>
<path d="M54.5406 71.1057H52.0942V79.9998H54.5406V71.1057Z" fill="#1F2937"/>
</svg>
