<?xml version="1.0" encoding="utf-8"?>
<!-- Generator: Adobe Illustrator 19.0.0, SVG Export Plug-In . SVG Version: 6.00 Build 0)  -->
<svg version="1.1" id="Layer_1" xmlns="http://www.w3.org/2000/svg" xmlns:xlink="http://www.w3.org/1999/xlink" x="0px" y="0px"
	 viewBox="0 0 500 500" style="enable-background:new 0 0 500 500;" xml:space="preserve">
<style type="text/css">
	.st0{fill:#F26522;}
	.st1{fill:#FFFFFF;}
</style>
<g id="XMLID_1_">
	<rect id="XMLID_2_" x="67.5" y="67.5" class="st0" width="365" height="365"/>
	<path id="XMLID_3_" class="st1" d="M218,295.6h55.8v-15.2h-38.6v-23.5h35.6v-15.2h-35.6v-22h38.6v-15.2H218V295.6z M348.4,270.8
		c0-18.2-1.2-22.2-25.7-28.1c-15.7-3.8-16-4.1-16-14.5c0-7.9,2.1-10.4,13.7-10.4c7.9,0,16.8,1.1,24.4,2.7l1.9-14.5
		c-9-2.1-18.6-3-26.5-3c-23.1,0-30.7,8.2-30.7,24.8c0,19.3,3,23.5,25,28.5c16.4,3.6,16.7,4.4,16.7,14.5c0,8.8-2.1,11.4-14.5,11.4
		c-9,0-17.2-1.6-25.7-4.2l-3,13.5c6,2.9,18.1,5.5,28.5,5.5C343.3,296.9,348.4,288,348.4,270.8z M380.1,236.9
		c0-14,6.7-16.7,22.9-16.7c2.9,0,8.9,0.4,12.9,1.2l1.1-14c-4.1-1-10.7-1.6-15.7-1.6c-24.9,0-37.8,7.7-37.8,31.7v33.3
		c0,15.7,4.7,26.1,28.2,26.1c21.5,0,28.1-10.7,28.1-24.9v-6.6c0-15.7-6.7-22.6-23.3-22.6c-5.9,0-11.5,0.8-16.3,2.5V236.9z
		 M393.8,257.3c6,0,9.2,2.1,9.2,8.6v6.7c0,7-2.7,10-11.4,10c-8.6,0-11.5-2.5-11.5-10v-12.5C384,258.5,388.9,257.3,393.8,257.3z"/>
</g>
</svg>
