<?xml version="1.0" encoding="utf-8"?>
<!-- Generator: Adobe Illustrator 19.0.0, SVG Export Plug-In . SVG Version: 6.00 Build 0)  -->
<svg version="1.1" id="Layer_1" xmlns="http://www.w3.org/2000/svg" xmlns:xlink="http://www.w3.org/1999/xlink" x="0px" y="0px"
	 viewBox="0 0 500 500" style="enable-background:new 0 0 500 500;" xml:space="preserve">
<style type="text/css">
	.st0{fill:#FBA919;}
	.st1{fill:#E78724;}
	.st2{fill:#FDC168;}
	.st3{fill:#FFFFFF;}
	.st4{fill:#C9C9C9;}
	.st5{fill:#463014;}
</style>
<g id="XMLID_94_">
	<path id="XMLID_96_" class="st0" d="M132.1,156.2c0,0,6.3,24.1,7.1,32.1c0.9,8-16.1,25.9-16.1,34.8c0,8.9,3.6,25,23.2,33
		c19.6,8,22.3,28.6,22.3,41.1c0,12.5-7.1,36.6-7.1,36.6s-4.5,59.8,19.6,70.5c24.1,10.7,18.8,10.7,24.1,10.7
		c5.4,0,44.6,16.1,67.9,9.8c23.2-6.3,29.5-13.4,29.5-13.4s23.2,1.8,30.4-18.8c7.1-20.5,11.6-63.4,8.9-83
		c-2.7-19.6-6.2-45.5,9.8-54.5c16.1-8.9,33-19.6,30.4-28.6c-2.7-8.9-17-21.4-17-21.4s-3.6-22.3-0.9-27.7c2.7-5.4,18.8-18.8,9.8-28.6
		c-8.9-9.8-25-9.8-25-9.8l-20.5,1.8c0,0-34.8-31.3-80.4-29.5c-45.5,1.8-74.1,29.5-74.1,29.5s-15.2-5.4-28.6,0
		C132.1,146.4,129.4,141,132.1,156.2z"/>
	<path id="XMLID_100_" class="st1" d="M213.7,289.2c0,0-17.7,27-30.7,46.2c-2,3,13,3.2,13,3.2L213.7,289.2z"/>
	<path id="XMLID_101_" class="st1" d="M222.1,233.1c0,0-5.3,13.3-8.3,20.3c-3.2,7.7-15.3,11.5-15.3,11.5s6.3-6.6,6.3-23.2
		c0-7,9-9.8,9-9.8L222.1,233.1z"/>
	<path id="XMLID_102_" class="st1" d="M216.7,240.6c0,0-10.9,13-31.2,5.7c-20.3-7.3-22.4-33.3-22.4-40.6c0-7.3,38.5,7.3,43.7,10.4
		C212.1,219.3,221.9,231.8,216.7,240.6z"/>
	<path id="XMLID_103_" class="st1" d="M140.1,101.7c0,0,18.7-3.6,31.2,6.2c12.5,9.9,16.1,17.7,16.1,17.7l-21,16.7
		c0,0-10.2-4.7-13.3-18.2C150,110.6,152.1,104.3,140.1,101.7z"/>
	<path id="XMLID_104_" class="st1" d="M211.3,203.1c-8.1-11.4-21.3-16.4-31.9-17.3c-18.1-1.4-26.7,5-26.7,5s29.6,1.3,38.2,12.5
		c15.9,20.9,39.1,22.6,42.8,18c-4.3,0.2-9-1.9-14-6.7C216.4,211.6,213.8,206.7,211.3,203.1z"/>
	<path id="XMLID_105_" class="st1" d="M161.3,243.5c0,0-32.9-11.3-26.6-22.7c6.2-11.4,1.3-17.7,1.3-17.7s-18.3,13.7-13.7,28.3
		c2.9,8.9,7.7,15.4,34.2,27.8c12.7,23.6,2.6,66,3.2,66.2c1,0.3,17.8-8.3,16.7-48C176,265.2,175,248.5,161.3,243.5z"/>
	<path id="XMLID_106_" class="st1" d="M204.3,122.1c-13.8,7-32.7,16.7-32.7,16.7l7.4,3.7c-0.7,1.1-1.1,1.8-1.1,1.8l7.6,3.5
		c0,0,18.6,13.5,30,22.2c-3.8-11.7-15-30.1-15-30.1S197.6,131.4,204.3,122.1z"/>
	<path id="XMLID_107_" class="st1" d="M250.1,407.4c-42.3,0-56.7-21.5-56.7-21.5L200,402c2.5,7,29.2,28.7,50,28.7"/>
	<path id="XMLID_108_" class="st1" d="M198.1,371.4c0,0,3.9,23.8,19.5,23.8c13.3,0,17.2-20.1,17.2-24.3L198.1,371.4z"/>
	<path id="XMLID_109_" class="st1" d="M172.1,335.4c1.4-3.8,6.2-19.2,7.8-33.3c1.9-16.8,1.2-41.4,1.2-41.4s-4.2,16.1-7.8,18.7
		c-3.6,2.6-10.4,20.3-10.4,20.3s-3.6,26.3-5.3,35.2C162.3,335.9,166.3,333.1,172.1,335.4z"/>
	<path id="XMLID_111_" class="st1" d="M134.4,231.1c0,0,8.8-3.1,11.4-22.4c2.6-19.2-3.1-35.9-3.1-35.9s0.5,26.5-2.6,31.7
		c-3.1,5.2-5.7,6.8-9.4,13.5C127.1,224.9,132.3,229,134.4,231.1z"/>
	<path id="XMLID_112_" class="st2" d="M145,106.3l-1.8-1.1C137.9,105.3,145,106.3,145,106.3z"/>
	<path id="XMLID_113_" class="st0" d="M211.5,116.4c0,0-8.3-1.4-12.5-7.6c-4.2-6.2-15.9-18.7-34.7-18.9c-18.8-0.1-37.4,5-37.4,5
		l16.2,10.3c1.7-0.1,4.7,0,9.7,0.1c20.4,0.7,23.5,20.8,23.5,20.8l71.8-9.9"/>
	<path id="XMLID_117_" class="st3" d="M218.5,227.6c0,0-9.7,9.7-24.6,6.6c-14.9-3.1-23.9-9.7-24.6-21.1c-0.7-11.4,3.1-15.9,3.1-15.9
		s16.6,5.2,24.6,12.1C205,216.2,210.8,227.3,218.5,227.6z"/>
	<path id="XMLID_118_" class="st4" d="M206.7,224.1c0,0-8.4,3.8-17.8,0.7c-12.3-4.1-13.1-16.9-13.1-16.9s-7.6,22.2,13.6,26.4
		c17,3.4,27-6.4,27-6.4L206.7,224.1z"/>
	<path id="XMLID_119_" class="st5" d="M212.7,111.7c-0.9-19,14.7-34.2,20.1-34.8c0.3,3.2-0.3,15.8,5.1,19.7
		c1.6-10.3,6.9-21.6,27.9-29c-4.5,11.9-0.6,21.9,1.3,26.5c14.3-13,24-10.9,24-10.9s-10,17.2-6.1,28.5
		C256.2,109.4,212.9,114.7,212.7,111.7z"/>
	<path id="XMLID_120_" class="st5" d="M151.7,140.6c-6.9-5.7-1.7-11-2.3-17.5c-0.3-3.4-0.6-6.7-1.7-8.5c-6.3-10-21.2-13-21.4-13
		l-7-1.4l4.6-5.4c0.6-0.7,19.6-18.9,49.1-9.3c20.6,6.6,35.8,29.2,36.4,30.1l-10.3,4.9c-0.1-0.2-12.2-21.4-29.8-27.1
		c-14.3-4.6-27.4-0.2-33.1,2.6c6,2.4,13.8,6.8,18.5,14.2c2.2,3.5,2.6,8,3,12.2c0.5,5.7,0.9,11,5.1,14.5L151.7,140.6z"/>
	<path id="XMLID_125_" class="st5" d="M133.3,223.8c0,0,8.7-10.7,11.2-31.6c1-8.2-0.8-24.4-3.6-30.7c0.5,15.3-3.4,30.7-3.4,30.7
		S134.9,220.7,133.3,223.8z"/>
	<path id="XMLID_126_" class="st5" d="M179,129.8c0,0-2.8-12.1-10.5-18.3c-10.8-8.6-24.1-4-24.2-4l-1.9-5.9c0.6-0.2,15.8-5,29.7,4.8
		c14,9.9,15.7,18.8,15.9,19.8L179,129.8z"/>
	<path id="XMLID_127_" class="st5" d="M160.5,216.1c0,0-4.5-6.5-3.7-13.6c0.4-3.5,2-7.2,5-8.4c5.4-2.4,7.8,3.8,7.8,3.8
		S162,199.7,160.5,216.1z"/>
	<path id="XMLID_128_" class="st5" d="M210.4,226c0.2,0.4,0.3,0.6,0.3,0.6s-14.2,10.6-28.7-0.2c-7.8-5.8-7-20.1-4.7-26.1
		c6.2,1.4,11.4,3.9,15.8,6.9c-5.5-4.9-10.4-8.6-10.4-8.7l-6.3-1.8l-12.2-4.2c-0.2,0.9-4.6,21.9,8.3,36.1c5.7,6.3,32.5,20.5,45.2-3.7
		L210.4,226z"/>
	<path id="XMLID_129_" class="st5" d="M209,227.6c8,12.1,28.1,5.2,27.7-7.6c0,0-13.4,7.4-25.3-6.2c-6.9-8-29.1-30-59.3-22.6
		C173,195.6,200.5,214.6,209,227.6z"/>
	<path id="XMLID_130_" class="st5" d="M149.4,261.8c1.9,1.1,8.7,8.1,8.7,18.6c0,5.3-0.5,31.6-3.1,47.8c3.9,2.5,6.6,3.1,10.5,5.7
		c1.9-18.7,3.3-45.7,2.7-56.7c-0.7-12.5-7.4-20.8-13.6-24.4c-1.9-1.1-4-2.2-6-3.3c-10.6-5.7-21.5-11.6-21.5-21.8
		c0-7.9,3.1-10.4,6.3-13l0.4-0.3c2.2-1.7,4.6-3.7,6.1-7c4-8.9,4.6-31.5,0-37.3c-2.3-2.9-8.4-12.5-6.7-19c0.7-2.5,2.2-4.3,4.8-5.6
		c2.7-1.4,6.3-2.1,10.8-2.1c8.7,0,18.5,2.7,23.5,4.2c17.9,5.7,39.5,22,45.7,26.9c0.2,0.1,0.3,0.2,0.3,0.2l4,2.8l-2.5-4.1
		c-0.2-0.3-15.8-26-43.9-35.5c-5.5-1.8-16.2-4.9-26.7-4.9c-6.3,0-11.6,1.1-15.8,3.3c-5.1,2.6-8.6,6.8-10.1,12.1
		c-3.5,13,8,27.5,8.4,27.9c1.3,2.4,1.9,19.8-1.2,26.8c-0.4,1-1.6,1.9-3.1,3.1c-0.5,0.4-1,0.8-1.5,1.2c-4.4,3.3-11,8.3-11,19.8
		c0,15.8,16,24.3,28.8,31.2C145.6,259.7,147.6,260.8,149.4,261.8z"/>
	<path id="XMLID_131_" class="st5" d="M151.7,140.6c-6.9-5.7-1.7-11-2.3-17.5c-0.3-3.4-0.6-6.7-1.7-8.5c-6.3-10-21.2-13-21.4-13
		l-7-1.4l4.6-5.4c0.6-0.7,19.6-18.9,49.1-9.3c20.6,6.6,35.8,29.2,36.4,30.1l-10.3,4.9c-0.1-0.2-12.2-21.4-29.8-27.1
		c-14.3-4.6-27.4-0.2-33.1,2.6c6,2.4,13.8,6.8,18.5,14.2c2.2,3.5,2.6,8,3,12.2c0.5,5.7,0.9,11,5.1,14.5L151.7,140.6z"/>
	<path id="XMLID_132_" class="st5" d="M151.5,141.8l-0.4-0.4c-5.1-4.2-4.2-8.4-3.3-12.4c0.4-1.9,0.8-3.8,0.6-5.8
		c-0.3-3.3-0.5-6.4-1.5-8c-6-9.5-20.6-12.5-20.7-12.6l-8.7-1.7l5.8-6.8c0.1-0.1,12.3-12.5,33-12.5c5.6,0,11.4,0.9,17.2,2.8
		c21.5,6.9,36.8,30.3,37,30.5l0.6,1l-12.2,5.7l-0.5-0.8c-1.3-2.2-12.9-21.3-29.3-26.6c-4-1.3-8.3-2-12.6-2c-7.8,0-14.2,2.1-17.6,3.6
		c5.7,2.5,12.5,6.8,16.9,13.7c2.4,3.7,2.7,8.3,3.1,12.7c0.5,5.5,0.9,10.6,4.7,13.8l1.5,1.2L151.5,141.8z"/>
	<path id="XMLID_133_" class="st5" d="M179,129.8c0,0-2.8-12.1-10.5-18.3c-10.8-8.6-24.1-4-24.2-4l-1.9-5.9c0.6-0.2,15.8-5,29.7,4.8
		c14,9.9,15.7,18.8,15.9,19.8L179,129.8z"/>
	<path id="XMLID_136_" class="st5" d="M178.2,131.2L178,130c0-0.1-2.7-11.8-10.1-17.7c-4.2-3.3-9.2-5-15-5c-4.5,0-7.8,1.1-8.2,1.2
		l-1,0.3l-2.6-7.9l1-0.3c0.4-0.1,4.5-1.4,10.1-1.4c7.5,0,14.6,2.2,20.5,6.4c14.4,10.1,16.1,19.4,16.3,20.5l0.1,0.8L178.2,131.2z
		 M152.9,105.3c6.2,0,11.8,1.9,16.3,5.5c6.5,5.2,9.6,14.4,10.5,17.7l7.1-2.8c-0.6-2.5-3.5-10-15.3-18.3c-5.6-4-12.1-6-19.3-6
		c-3.9,0-7,0.6-8.5,1l1.3,3.9C146.5,105.9,149.3,105.3,152.9,105.3z"/>
	<path id="XMLID_137_" class="st5" d="M216.9,389.5L216.9,389.5c-3.1,0-6.2-1.1-8.4-3c-1.7-1.4-7.3-6.6-9.8-12.9
		c-0.9-2.4-0.7-4.3,0.6-5.6c0.9-0.9,2.8-2.1,6.8-2.1l2.8,0c3.3,0,8.9,0,13.6,0h4.6c3,0,5.1,0.6,6.3,1.9c1.6,1.6,1.1,3.7,0.6,4.7
		c-0.8,1.9-3.9,8.1-9.3,13.8C222.9,388.3,220.1,389.5,216.9,389.5z"/>
	<path id="XMLID_138_" class="st5" d="M220.1,228.3l-11.1-0.7c0,0,2.8,5,4.7,11.5c2.1,7.3-1.9,18-1.9,18S226.6,240.3,220.1,228.3z"
		/>
	<path id="XMLID_139_" class="st5" d="M206.3,418.7c-39.5-3-53.4-40.3-53.4-48.1l10.3,0l-5.2,0h5.2c0.1,3.4,10.5,35.3,43.9,37.8
		L206.3,418.7z"/>
	<path id="XMLID_140_" class="st3" d="M195.2,351.9c-0.6-3.6-0.7-6.9,0.1-10.3c-3-2.3-8.4-3.1-12.4-4.4c-3.3-2.1-20.2,2.1-32.5-12.7
		c-15.4-18.6-12.1-29.7-12.1-29.7c-3.9,4.4-7.8,2.7-13.8,23.1c-6,20.4,2.8,34.6,19.3,48.9c7.8,6.7,18.8,9.5,28.2,10.6
		c-3.2-3.2,5.4-3.5,11.3-5.7c-0.5-4.8,0.3-9.4,3.9-13.1c2.1-2.3,4.9-3.6,7.8-4.7c0.2-0.4,0.3-0.7,0.4-1.1
		C195.3,352.6,195.2,352.2,195.2,351.9z"/>
	<path id="XMLID_141_" class="st4" d="M183.3,371.7c-0.3-1-0.6-2-0.9-3.1c-0.3-1.1-1.6-4.3,0-0.7c-0.4-0.9-0.7-1.9-0.9-2.9
		c-26.7,0-49.9-18.3-45.4-56.9c-3.5-4.6-8.4,9.3-8.4,9.3s-13.4,38.8,21.1,53.8c11.5,5,21.6,8.6,24,7.2c5,1,9.5-2.5,11.2-4.8
		C183.8,373.1,183.5,372.4,183.3,371.7z"/>
	<path id="XMLID_142_" class="st5" d="M194.7,346.3c0-3.3,0.7-6.4,2.3-9.5c0.1-0.2,0.2-0.4,0.4-0.6c-10.3-0.1-22.1-1.1-32.2-5.1
		c-11.1-4.4-24.9-19.6-27.3-37.4c0,0-20.8,16.1-14.7,50.5c5.7,32.3,32.8,42.9,63.6,44.6c0-0.2-3.5-7.4-2.4-11.8
		c-17.5,1.3-37.1-5.5-46.6-21.1c-8.7-14.2-6.2-38.5-2.7-42.1C143.9,341.2,175.1,346.8,194.7,346.3z"/>
	<path id="XMLID_143_" class="st5" d="M197.9,326.7c-5.6,16.3-16.9,29.5-16.9,29.5s15.6-0.7,16.5-3.5c0.6-2,14.1-33.5,19.2-70.4
		C211.9,290.3,198.4,325.3,197.9,326.7z"/>
	<path id="XMLID_144_" class="st1" d="M286.3,289.2c0,0,17.7,27,30.7,46.2c2,3-13,3.2-13,3.2L286.3,289.2z"/>
	<path id="XMLID_145_" class="st1" d="M277.9,233.1c0,0,5.3,13.3,8.2,20.3c3.2,7.7,15.3,11.5,15.3,11.5s-6.3-6.6-6.3-23.2
		c0-7-9-9.8-9-9.8L277.9,233.1z"/>
	<path id="XMLID_146_" class="st1" d="M283.3,240.6c0,0,10.9,13,31.2,5.7c20.3-7.3,22.4-33.3,22.4-40.6c0-7.3-38.5,7.3-43.7,10.4
		C287.9,219.3,278.1,231.8,283.3,240.6z"/>
	<path id="XMLID_147_" class="st1" d="M359.9,101.7c0,0-18.7-3.6-31.2,6.2c-12.5,9.9-16.1,17.7-16.1,17.7l21,16.7
		c0,0,10.2-4.7,13.3-18.2C350,110.6,347.9,104.3,359.9,101.7z"/>
	<path id="XMLID_148_" class="st1" d="M288.7,203.1c8.1-11.4,21.3-16.4,31.9-17.3c18.1-1.4,26.7,5,26.7,5s-29.6,1.3-38.2,12.5
		c-15.9,20.9-39.1,22.6-42.8,18c4.3,0.2,9-1.9,14-6.7C283.6,211.6,286.2,206.7,288.7,203.1z"/>
	<path id="XMLID_149_" class="st1" d="M338.7,243.5c0,0,32.9-11.3,26.6-22.7c-6.2-11.4-1.3-17.7-1.3-17.7s18.4,13.7,13.7,28.3
		c-2.9,8.9-7.7,15.4-34.2,27.8c-12.7,23.6-2.6,66-3.2,66.2c-1,0.3-17.8-8.3-16.7-48C324,265.2,325,248.5,338.7,243.5z"/>
	<path id="XMLID_150_" class="st1" d="M295.7,122.1c13.8,7,32.7,16.7,32.7,16.7l-7.4,3.7c0.7,1.1,1.1,1.8,1.1,1.8l-7.6,3.5
		c0,0-18.6,13.5-30,22.2c3.8-11.7,15-30.1,15-30.1S302.4,131.4,295.7,122.1z"/>
	<path id="XMLID_151_" class="st1" d="M249.9,407.4c42.3,0,56.7-21.5,56.7-21.5L300,402c-2.5,7-29.2,28.7-50,28.7"/>
	<path id="XMLID_152_" class="st1" d="M301.9,371.4c0,0-3.9,23.8-19.5,23.8c-13.3,0-17.2-20.1-17.2-24.3L301.9,371.4z"/>
	<path id="XMLID_153_" class="st1" d="M327.9,335.4c-1.4-3.8-6.2-19.2-7.8-33.3c-1.9-16.8-1.2-41.4-1.2-41.4s4.2,16.1,7.8,18.7
		c3.6,2.6,10.4,20.3,10.4,20.3s3.6,26.3,5.3,35.2C337.7,335.9,333.7,333.1,327.9,335.4z"/>
	<path id="XMLID_154_" class="st1" d="M365.6,231.1c0,0-8.8-3.1-11.4-22.4c-2.6-19.2,3.1-35.9,3.1-35.9s-0.5,26.5,2.6,31.7
		c3.1,5.2,5.7,6.8,9.4,13.5C372.9,224.9,367.7,229,365.6,231.1z"/>
	<path id="XMLID_155_" class="st2" d="M355,106.3l1.8-1.1C362.1,105.3,355,106.3,355,106.3z"/>
	<path id="XMLID_156_" class="st0" d="M288.5,116.4c0,0,8.3-1.4,12.5-7.6c4.2-6.2,16-18.7,34.7-18.9c18.8-0.1,37.4,5,37.4,5
		l-16.2,10.3c-1.7-0.1-4.7,0-9.7,0.1c-20.4,0.7-23.5,20.8-23.5,20.8l-71.8-9.9"/>
	<path id="XMLID_157_" class="st3" d="M281.5,227.6c0,0,9.7,9.7,24.6,6.6c14.9-3.1,23.9-9.7,24.6-21.1c0.7-11.4-3.1-15.9-3.1-15.9
		s-16.6,5.2-24.6,12.1C295,216.2,289.2,227.3,281.5,227.6z"/>
	<path id="XMLID_158_" class="st4" d="M293.3,224.1c0,0,8.4,3.8,17.8,0.7c12.3-4.1,13.1-16.9,13.1-16.9s7.6,22.2-13.6,26.4
		c-17,3.4-27-6.4-27-6.4L293.3,224.1z"/>
	<path id="XMLID_159_" class="st5" d="M348.3,140.6c6.9-5.7,1.8-11,2.3-17.5c0.3-3.4,0.6-6.7,1.7-8.5c6.3-10,21.2-13,21.4-13l7-1.4
		l-4.6-5.4c-0.6-0.7-19.6-18.9-49.1-9.3c-20.6,6.6-35.8,29.2-36.4,30.1l10.3,4.9c0.1-0.2,12.2-21.4,29.8-27.1
		c14.3-4.6,27.4-0.2,33.1,2.6c-6,2.4-13.8,6.8-18.5,14.2c-2.2,3.5-2.6,8-3,12.2c-0.5,5.7-0.9,11-5.1,14.5L348.3,140.6z"/>
	<path id="XMLID_160_" class="st5" d="M366.6,223.8c0,0-8.6-10.7-11.2-31.6c-1-8.2,0.8-24.4,3.6-30.7c-0.5,15.3,3.4,30.7,3.4,30.7
		S365.1,220.7,366.6,223.8z"/>
	<path id="XMLID_161_" class="st5" d="M321,129.8c0,0,2.8-12.1,10.5-18.3c10.8-8.6,24.1-4,24.2-4l1.9-5.9c-0.6-0.2-15.8-5-29.7,4.8
		c-14,9.9-15.7,18.8-15.9,19.8L321,129.8z"/>
	<path id="XMLID_162_" class="st5" d="M339.5,216.1c0,0,4.5-6.5,3.7-13.6c-0.4-3.5-2-7.2-5-8.4c-5.4-2.4-7.8,3.8-7.8,3.8
		S338,199.7,339.5,216.1z"/>
	<path id="XMLID_163_" class="st5" d="M289.6,226c-0.2,0.4-0.3,0.6-0.3,0.6s14.2,10.6,28.7-0.2c7.8-5.8,7-20.1,4.7-26.1
		c-6.2,1.4-11.4,3.9-15.8,6.9c5.5-4.9,10.4-8.6,10.4-8.7l6.3-1.8l12.2-4.2c0.2,0.9,4.6,21.9-8.3,36.1c-5.7,6.3-32.5,20.5-45.2-3.7
		L289.6,226z"/>
	<path id="XMLID_164_" class="st5" d="M291,227.6c-8,12.1-28.1,5.2-27.7-7.6c0,0,13.4,7.4,25.3-6.2c6.9-8,29.1-30,59.3-22.6
		C327,195.6,299.5,214.6,291,227.6z"/>
	<path id="XMLID_165_" class="st5" d="M350.6,261.8c-1.9,1.1-8.7,8.1-8.7,18.6c0,5.3,0.5,31.6,3.1,47.8c-3.9,2.5-6.6,3.1-10.5,5.7
		c-1.9-18.7-3.4-45.7-2.7-56.7c0.7-12.5,7.4-20.8,13.6-24.4c1.9-1.1,4-2.2,6-3.3c10.6-5.7,21.5-11.6,21.5-21.8
		c0-7.9-3.1-10.4-6.3-13l-0.3-0.3c-2.2-1.7-4.6-3.7-6.1-7c-4-8.9-4.6-31.5,0-37.3c2.3-2.9,8.4-12.5,6.7-19c-0.7-2.5-2.2-4.3-4.8-5.6
		c-2.7-1.4-6.3-2.1-10.8-2.1c-8.7,0-18.5,2.7-23.5,4.2c-17.9,5.7-39.5,22-45.7,26.9c-0.2,0.1-0.3,0.2-0.3,0.2l-4,2.8l2.5-4.1
		c0.2-0.3,15.8-26,43.9-35.5c5.5-1.8,16.2-4.9,26.7-4.9c6.3,0,11.6,1.1,15.8,3.3c5.1,2.6,8.6,6.8,10.1,12.1c3.5,13-8,27.5-8.4,27.9
		c-1.3,2.4-1.9,19.8,1.2,26.8c0.4,1,1.6,1.9,3.1,3.1c0.5,0.4,1,0.8,1.5,1.2c4.4,3.3,11,8.3,11,19.8c0,15.8-16,24.3-28.8,31.2
		C354.4,259.7,352.4,260.8,350.6,261.8z"/>
	<path id="XMLID_166_" class="st5" d="M331.6,138.8c-2.5-4.3-9-12.6-24-19.9c-16.7-8.1-36.1-12.3-57.5-12.3v0h0h0v0
		c-21.4,0-40.8,4.1-57.5,12.3c-15,7.3-21.5,15.6-24,19.9l-1.1,1.4l12.8,2.9l0.4-0.5l0.2-0.5c0.2-0.8,1.9-5.4,16.2-12.4
		c15.3-7.5,33.1-11.2,53-11.2c19.9,0,37.7,3.8,53,11.2c14.3,7,16,11.5,16.2,12.4l0.2,0.5l0.4,0.5l12.8-2.9L331.6,138.8z"/>
	<path id="XMLID_167_" class="st5" d="M348.3,140.6c6.9-5.7,1.8-11,2.3-17.5c0.3-3.4,0.6-6.7,1.7-8.5c6.3-10,21.2-13,21.4-13l7-1.4
		l-4.6-5.4c-0.6-0.7-19.6-18.9-49.1-9.3c-20.6,6.6-35.8,29.2-36.4,30.1l10.3,4.9c0.1-0.2,12.2-21.4,29.8-27.1
		c14.3-4.6,27.4-0.2,33.1,2.6c-6,2.4-13.8,6.8-18.5,14.2c-2.2,3.5-2.6,8-3,12.2c-0.5,5.7-0.9,11-5.1,14.5L348.3,140.6z"/>
	<path id="XMLID_168_" class="st5" d="M335.1,137.4l1.4-1.2c3.8-3.2,4.3-8.3,4.7-13.8c0.4-4.4,0.8-9,3.1-12.7
		c4.3-6.8,11.2-11.1,16.9-13.7c-3.4-1.4-9.8-3.6-17.6-3.6c-4.3,0-8.6,0.7-12.6,2c-16.4,5.3-28,24.4-29.3,26.6l-0.5,0.8l-12.2-5.7
		l0.6-1c0.1-0.2,15.5-23.6,37-30.5c5.7-1.9,11.5-2.8,17.2-2.8c20.7,0,32.9,12.3,33,12.5l5.8,6.8l-8.7,1.7c-0.1,0-14.7,3.1-20.7,12.6
		c-1,1.6-1.3,4.7-1.5,8c-0.2,2,0.2,3.9,0.7,5.8c0.9,4,1.8,8.2-3.3,12.4l-0.4,0.4L335.1,137.4z"/>
	<path id="XMLID_169_" class="st5" d="M321,129.8c0,0,2.8-12.1,10.5-18.3c10.8-8.6,24.1-4,24.2-4l1.9-5.9c-0.6-0.2-15.8-5-29.7,4.8
		c-14,9.9-15.7,18.8-15.9,19.8L321,129.8z"/>
	<path id="XMLID_172_" class="st5" d="M310.9,126.9l0.1-0.8c0.2-1,1.9-10.4,16.3-20.5c5.9-4.2,13-6.4,20.5-6.4
		c5.7,0,9.7,1.2,10.1,1.4l1,0.3l-2.6,7.9l-1-0.3c-0.4-0.1-3.7-1.2-8.2-1.2c-5.8,0-10.8,1.7-15,5c-7.4,5.8-10.1,17.5-10.1,17.7
		l-0.3,1.2L310.9,126.9z M355,106.3l1.3-3.9c-1.5-0.4-4.6-1-8.5-1c-7.2,0-13.7,2-19.3,6c-11.8,8.3-14.6,15.8-15.3,18.3l7.1,2.8
		c0.9-3.3,4-12.5,10.5-17.7c4.5-3.6,10.1-5.5,16.3-5.5C350.7,105.3,353.5,105.9,355,106.3z"/>
	<path id="XMLID_173_" class="st5" d="M275.2,386.3c-5.4-5.7-8.5-11.9-9.3-13.8c-0.4-1.1-0.9-3.1,0.6-4.7c1.2-1.3,3.3-1.9,6.3-1.9
		h4.6c4.8,0,10.3,0,13.6,0l2.8,0c3.9,0,5.8,1.1,6.7,2.1c1.3,1.4,1.6,3.3,0.6,5.6c-2.5,6.3-8.1,11.5-9.8,12.9c-2.2,1.9-5.3,3-8.4,3
		C279.9,389.5,277.2,388.3,275.2,386.3z"/>
	<path id="XMLID_174_" class="st5" d="M279.9,228.3l11.1-0.7c0,0-2.8,5-4.7,11.5c-2.1,7.3,1.9,18,1.9,18S273.4,240.3,279.9,228.3z"
		/>
	<path id="XMLID_175_" class="st1" d="M250,188.7c-7.1,0-16.3-0.2-23.2-5.2c0,0,9.1,15.9,23.2,15.9l0-2l0,2
		c14.1,0,23.2-15.9,23.2-15.9C266.3,188.5,257.1,188.7,250,188.7z"/>
	<path id="XMLID_176_" class="st5" d="M269.5,188.6c-7.1,4.3-13.4,5.8-19.5,5.9c-6-0.1-12.4-1.6-19.5-5.9c0,0,10.3,12.6,19.4,12.7v0
		l0.1,0l0.1,0v0C259.1,201.2,269.5,188.6,269.5,188.6z"/>
	<path id="XMLID_177_" class="st5" d="M293.7,418.7l-0.8-10.3c33.3-2.6,43.8-34.5,43.9-37.8h10.3
		C347.1,378.4,333.2,415.7,293.7,418.7z"/>
	<path id="XMLID_178_" class="st3" d="M304.8,351.9c0.6-3.6,0.7-6.9-0.1-10.3c3-2.3,8.4-3.1,12.4-4.4c3.3-2.1,20.2,2.1,32.5-12.7
		c15.4-18.6,12.1-29.7,12.1-29.7c3.9,4.4,7.8,2.7,13.8,23.1c6,20.4-2.8,34.6-19.3,48.9c-7.8,6.7-18.8,9.5-28.2,10.6
		c3.2-3.2-5.4-3.5-11.3-5.7c0.5-4.8-0.3-9.4-3.9-13.1c-2.1-2.3-4.9-3.6-7.8-4.7c-0.2-0.4-0.3-0.7-0.4-1.1
		C304.7,352.6,304.8,352.2,304.8,351.9z"/>
	<path id="XMLID_179_" class="st4" d="M316.7,371.7c0.3-1,0.6-2,0.9-3.1c0.3-1.1,1.6-4.3,0-0.7c0.4-0.9,0.7-1.9,0.9-2.9
		c26.7,0,49.9-18.3,45.4-56.9c3.5-4.6,8.4,9.3,8.4,9.3s13.4,38.8-21.1,53.8c-11.5,5-21.6,8.6-24,7.2c-5,1-9.5-2.5-11.2-4.8
		C316.2,373.1,316.5,372.4,316.7,371.7z"/>
	<path id="XMLID_180_" class="st5" d="M305.3,346.3c0-3.3-0.7-6.4-2.3-9.5c-0.1-0.2-0.2-0.4-0.4-0.6c10.3-0.1,22.1-1.1,32.2-5.1
		c11.1-4.4,24.9-19.6,27.3-37.4c0,0,20.8,16.1,14.7,50.5c-5.8,32.3-32.8,42.9-63.6,44.6c0-0.2,3.5-7.4,2.4-11.8
		c17.5,1.3,37.1-5.5,46.6-21.1c8.7-14.2,6.2-38.5,2.7-42.1C356.1,341.2,324.9,346.8,305.3,346.3z"/>
	<path id="XMLID_183_" class="st5" d="M317.7,354.4c-3.7-4-10.5-8.7-26.1-8.7c0,0-29.6,0-41.6,0H250H250c-12,0-41.6,0-41.6,0
		c-15.6,0-22.4,4.7-26.1,8.7c-5.4,5.8-6.2,13.9-2.5,23.9c9.9,26.8,23.7,54.1,70.2,54.1v0l0.1,0l0.1,0v0c46.4,0,60.3-27.3,70.2-54.1
		C324,368.3,323.1,360.2,317.7,354.4z M310.5,376.5c-4.7,13.5-17.3,46.1-60.5,46.1c-43.2-0.1-55.8-32.7-60.5-46.1
		c-2.6-7.5-2.4-13,0.6-16.4c2.1-2.3,6.8-5.2,17.6-5.2l11.3,0c8.3,0,18.7,0,31.1,0c12.3,0,22.8,0,31.1,0l11.3,0
		c10.8,0,15.5,2.8,17.6,5.2C312.9,363.5,313.1,369,310.5,376.5z"/>
	<path id="XMLID_184_" class="st5" d="M302.1,326.7c5.6,16.3,16.9,29.5,16.9,29.5s-15.6-0.7-16.5-3.5c-0.6-2-14.1-33.5-19.2-70.4
		C288.1,290.3,301.6,325.3,302.1,326.7z"/>
</g>
</svg>
