<svg width="1349" height="643" viewBox="0 0 1349 643" fill="none" xmlns="http://www.w3.org/2000/svg">
<rect width="1349" height="643" fill="#F3F4F6"/>
<rect width="30" height="643" fill="#5EEAD4"/>
<rect width="16.0866" height="4.28975" rx="2.14487" transform="matrix(0.659589 0.751626 -0.659589 0.751626 10.8295 309)" fill="#1F2937"/>
<rect width="16.0866" height="4.28975" rx="2.14487" transform="matrix(0.659589 -0.751626 0.659589 0.751626 8 330.211)" fill="#1F2937"/>
<path d="M70.576 46.9879V44.4468L74.3879 29.1996L89.635 16.4938L103.612 15.2231L118.859 21.5761L122.67 27.9291L112.506 22.8467H103.612L89.635 31.7408L85.8233 40.635V46.9879H70.576Z" fill="#5EEAD4"/>
<path d="M95.988 66.0469H102.341L108.694 72.4V81.2941L112.506 86.3764L116.266 94H117.409H136.647V53.3915L108.694 53.3411H95.988V66.0469Z" fill="#EF4444"/>
<path d="M136.647 54.6116H123.941V94H136.647V54.6116Z" fill="#F87171"/>
<path d="M87.0939 45.7175H70.576V91.4588H87.0939V73.6704L89.635 69.8587L95.988 67.3175V60.9646L98.5291 57.1527H106.153L117.588 45.7175H87.0939Z" fill="#EF4444"/>
<path d="M75.6583 83.835H70.576V92.7291H75.6583V83.835Z" fill="#FECACA"/>
<path d="M84.5527 53.3411V62.2352L87.7291 63.5058L90.9056 60.9646V53.3411H84.5527Z" fill="#F39200"/>
<path d="M107.423 57.2002H95.988V59.6465H107.423V57.2002Z" fill="#1F2937"/>
<path d="M111.235 53.3884H99.7997V55.8347H111.235V53.3884Z" fill="#1F2937"/>
<path d="M115.047 49.5767H103.612V52.023H115.047V49.5767Z" fill="#1F2937"/>
<path d="M90.9055 53.3411V60.3294C90.9055 62.0837 89.4834 63.5058 87.7291 63.5058C85.9747 63.5058 84.5526 62.0837 84.5526 60.3294V53.3411" fill="#FECACA"/>
<path d="M87.7291 64.7289C85.3032 64.7289 83.3295 62.7551 83.3295 60.3291V53.3408H85.7758V60.3291C85.7758 61.4062 86.6521 62.2826 87.7291 62.2826C88.8061 62.2826 89.6824 61.4063 89.6824 60.3291V53.3408H92.1287V60.3291C92.1287 62.7551 90.155 64.7289 87.7291 64.7289Z" fill="#1F2937"/>
<path d="M79.4702 61.012H75.6585V63.4583H79.4702V61.012Z" fill="white"/>
<path d="M69.3529 93.9524H88.3169V77.4822C88.3169 73.2523 91.758 69.8112 95.9879 69.8112H97.211V60.9645H94.7647V67.4384C89.7609 68.0443 85.8706 72.3175 85.8706 77.4822V91.5061H76.8817V83.8825H73.1173V86.3288H74.4354V91.5061H71.7992V60.917H80.7408V58.4707H71.7992V48.2112H118.859V45.7649H69.3529V93.9524Z" fill="#1F2937"/>
<path d="M130.247 44.4467C130.247 44.25 130.244 44.0538 130.239 43.8584C129.924 27.3407 116.391 14 99.7997 14C83.0113 14 69.3529 27.6584 69.3529 44.4467H71.7992C71.7992 44.0049 71.8108 43.5657 71.8312 43.1287H80.7408V40.6824H72.0531C72.1151 40.2237 72.188 39.7685 72.2718 39.3169H78.1996V36.8706H72.8413C72.9708 36.4107 73.1111 35.9553 73.2633 35.5052H75.6585V33.0589H74.2219C78.5933 23.2789 88.4131 16.4463 99.7997 16.4463C108.18 16.4463 115.711 20.1477 120.847 26.0005C117.077 23.2497 112.437 21.6235 107.423 21.6235C94.8384 21.6235 84.6001 31.8618 84.6001 44.4467H87.0464C87.0464 33.2107 96.1875 24.0698 107.423 24.0698C118.484 24.0698 127.514 32.9275 127.794 43.9215C127.797 44.0963 127.8 44.2712 127.8 44.4468L130.247 44.4467Z" fill="#1F2937"/>
<path d="M136.647 53.3884H113.776V55.8347H136.647V53.3884Z" fill="#1F2937"/>
<path d="M109.917 82.5646H107.471V74.9409C107.471 70.7112 104.03 67.27 99.7997 67.27V64.8237C105.378 64.8237 109.917 69.3623 109.917 74.9409V82.5646Z" fill="#1F2937"/>
<path d="M113.729 80.0234H111.283V86.3763H113.729V80.0234Z" fill="#1F2937"/>
<path d="M117.541 85.1057H115.094V93.9999H117.541V85.1057Z" fill="#1F2937"/>
<rect x="352" y="214" width="675" height="215" rx="25" fill="#EF4444"/>
<path d="M468.562 296.625H486.75C488.917 296.625 490.99 296.906 492.969 297.469C494.969 298.031 496.823 298.823 498.531 299.844C500.26 300.865 501.823 302.094 503.219 303.531C504.635 304.948 505.844 306.531 506.844 308.281C507.844 310.031 508.615 311.917 509.156 313.938C509.698 315.958 509.969 318.062 509.969 320.25C509.969 322.438 509.698 324.542 509.156 326.562C508.615 328.583 507.844 330.479 506.844 332.25C505.844 334 504.635 335.604 503.219 337.062C501.823 338.5 500.26 339.74 498.531 340.781C496.823 341.802 494.969 342.594 492.969 343.156C490.99 343.719 488.917 344 486.75 344H468.562V335.438H472.344V305.219H468.562V296.625ZM482.719 305.219V335.438H486.688C488.375 335.438 489.969 335.042 491.469 334.25C492.969 333.458 494.271 332.385 495.375 331.031C496.479 329.656 497.354 328.052 498 326.219C498.646 324.365 498.969 322.375 498.969 320.25C498.969 318.146 498.646 316.177 498 314.344C497.354 312.51 496.479 310.917 495.375 309.562C494.271 308.208 492.969 307.146 491.469 306.375C489.969 305.604 488.375 305.219 486.688 305.219H482.719ZM514.125 327.688C514.125 325.333 514.552 323.125 515.406 321.062C516.26 319 517.448 317.198 518.969 315.656C520.49 314.115 522.302 312.896 524.406 312C526.51 311.104 528.823 310.656 531.344 310.656C533.865 310.656 536.177 311.104 538.281 312C540.406 312.896 542.229 314.115 543.75 315.656C545.271 317.198 546.448 319 547.281 321.062C548.135 323.125 548.562 325.333 548.562 327.688C548.562 330.042 548.146 332.26 547.312 334.344C546.5 336.406 545.333 338.219 543.812 339.781C542.312 341.323 540.5 342.542 538.375 343.438C536.271 344.333 533.927 344.781 531.344 344.781C528.74 344.781 526.375 344.333 524.25 343.438C522.146 342.542 520.344 341.323 518.844 339.781C517.344 338.24 516.177 336.438 515.344 334.375C514.531 332.292 514.125 330.062 514.125 327.688ZM523.469 327.688C523.469 328.917 523.677 330.052 524.094 331.094C524.51 332.115 525.073 333 525.781 333.75C526.51 334.5 527.344 335.083 528.281 335.5C529.24 335.917 530.26 336.125 531.344 336.125C532.448 336.125 533.469 335.927 534.406 335.531C535.365 335.115 536.188 334.531 536.875 333.781C537.583 333.031 538.135 332.146 538.531 331.125C538.927 330.083 539.125 328.938 539.125 327.688C539.125 326.396 538.927 325.229 538.531 324.188C538.135 323.146 537.583 322.26 536.875 321.531C536.188 320.802 535.365 320.25 534.406 319.875C533.469 319.479 532.448 319.292 531.344 319.312C530.26 319.292 529.24 319.479 528.281 319.875C527.344 320.25 526.51 320.802 525.781 321.531C525.073 322.26 524.51 323.146 524.094 324.188C523.677 325.229 523.469 326.396 523.469 327.688ZM552.094 311.625H569V320.188H565.344L568.781 331.719L575.438 311.625H584.594L591.312 332.75L595.438 320.188H591.969V311.625H608.875V320.188H604.531L595.875 344.125H586.531L579.75 323.469L572.844 344.125H563.75L555.719 320.188H552.094V311.625ZM639.25 325.375C639.25 323.562 638.771 322.146 637.812 321.125C636.854 320.083 635.583 319.562 634 319.562C632.917 319.562 631.823 319.802 630.719 320.281C629.615 320.76 628.542 321.656 627.5 322.969V335.438H632.75V344H612.625V335.438H617.375V320.188H612.688V311.625H627.438V314.469C628.792 313.406 630.302 312.573 631.969 311.969C633.656 311.344 635.427 311.031 637.281 311.031C641.177 311.031 644.177 312.125 646.281 314.312C648.385 316.479 649.438 319.656 649.438 323.844V335.438H654.031V344H639.25V325.375ZM657.594 295.375H672.188V335.438H677.188V344H657.594V335.438H662.594V303.938H657.594V295.375ZM682.375 327.688C682.375 325.333 682.802 323.125 683.656 321.062C684.51 319 685.698 317.198 687.219 315.656C688.74 314.115 690.552 312.896 692.656 312C694.76 311.104 697.073 310.656 699.594 310.656C702.115 310.656 704.427 311.104 706.531 312C708.656 312.896 710.479 314.115 712 315.656C713.521 317.198 714.698 319 715.531 321.062C716.385 323.125 716.812 325.333 716.812 327.688C716.812 330.042 716.396 332.26 715.562 334.344C714.75 336.406 713.583 338.219 712.062 339.781C710.562 341.323 708.75 342.542 706.625 343.438C704.521 344.333 702.177 344.781 699.594 344.781C696.99 344.781 694.625 344.333 692.5 343.438C690.396 342.542 688.594 341.323 687.094 339.781C685.594 338.24 684.427 336.438 683.594 334.375C682.781 332.292 682.375 330.062 682.375 327.688ZM691.719 327.688C691.719 328.917 691.927 330.052 692.344 331.094C692.76 332.115 693.323 333 694.031 333.75C694.76 334.5 695.594 335.083 696.531 335.5C697.49 335.917 698.51 336.125 699.594 336.125C700.698 336.125 701.719 335.927 702.656 335.531C703.615 335.115 704.438 334.531 705.125 333.781C705.833 333.031 706.385 332.146 706.781 331.125C707.177 330.083 707.375 328.938 707.375 327.688C707.375 326.396 707.177 325.229 706.781 324.188C706.385 323.146 705.833 322.26 705.125 321.531C704.438 320.802 703.615 320.25 702.656 319.875C701.719 319.479 700.698 319.292 699.594 319.312C698.51 319.292 697.49 319.479 696.531 319.875C695.594 320.25 694.76 320.802 694.031 321.531C693.323 322.26 692.76 323.146 692.344 324.188C691.927 325.229 691.719 326.396 691.719 327.688ZM741.469 342.25C740.74 342.708 740.073 343.104 739.469 343.438C738.865 343.75 738.26 344 737.656 344.188C737.052 344.396 736.427 344.542 735.781 344.625C735.135 344.729 734.427 344.781 733.656 344.781C731.719 344.781 729.979 344.521 728.438 344C726.917 343.458 725.625 342.729 724.562 341.812C723.521 340.875 722.719 339.781 722.156 338.531C721.594 337.26 721.312 335.885 721.312 334.406C721.312 332.906 721.594 331.521 722.156 330.25C722.74 328.979 723.573 327.896 724.656 327C725.74 326.083 727.062 325.375 728.625 324.875C730.208 324.354 732.01 324.094 734.031 324.094C735.51 324.094 736.854 324.177 738.062 324.344C739.292 324.49 740.427 324.677 741.469 324.906V323.906C741.469 323.094 741.312 322.396 741 321.812C740.688 321.208 740.25 320.719 739.688 320.344C739.125 319.948 738.448 319.667 737.656 319.5C736.865 319.312 736 319.219 735.062 319.219C733.104 319.219 731.375 319.417 729.875 319.812C728.396 320.188 726.969 320.74 725.594 321.469L722.594 315.406C724.719 313.948 726.938 312.833 729.25 312.062C731.583 311.292 734.052 310.906 736.656 310.906C738.677 310.906 740.542 311.135 742.25 311.594C743.979 312.031 745.458 312.76 746.688 313.781C747.917 314.781 748.875 316.094 749.562 317.719C750.271 319.344 750.625 321.323 750.625 323.656V335.438H754.969V344H741.469V342.25ZM734.344 337.406C735.823 337.406 737.167 337.167 738.375 336.688C739.583 336.208 740.615 335.625 741.469 334.938V330.812H733.969C733.49 330.812 733.021 330.885 732.562 331.031C732.104 331.177 731.688 331.385 731.312 331.656C730.958 331.927 730.667 332.26 730.438 332.656C730.229 333.052 730.125 333.51 730.125 334.031C730.125 334.99 730.469 335.792 731.156 336.438C731.865 337.083 732.927 337.406 734.344 337.406ZM780.719 295.375H794.875V335.438H801.188V344H785.25V342.75C784.125 343.333 782.969 343.792 781.781 344.125C780.615 344.458 779.427 344.625 778.219 344.625C775.74 344.625 773.458 344.188 771.375 343.312C769.312 342.417 767.531 341.198 766.031 339.656C764.552 338.115 763.396 336.312 762.562 334.25C761.729 332.167 761.312 329.938 761.312 327.562C761.312 325.188 761.719 322.979 762.531 320.938C763.365 318.875 764.51 317.083 765.969 315.562C767.448 314.042 769.208 312.844 771.25 311.969C773.312 311.094 775.573 310.656 778.031 310.656C779.385 310.656 780.656 310.792 781.844 311.062C783.031 311.312 784.167 311.677 785.25 312.156V303.938H780.719V295.375ZM778.75 336C780.125 335.958 781.365 335.604 782.469 334.938C783.594 334.271 784.521 333.396 785.25 332.312V322.781C784.521 321.677 783.573 320.823 782.406 320.219C781.26 319.594 780.042 319.292 778.75 319.312C777.667 319.292 776.646 319.479 775.688 319.875C774.75 320.271 773.917 320.833 773.188 321.562C772.479 322.292 771.917 323.167 771.5 324.188C771.083 325.208 770.875 326.365 770.875 327.656C770.875 328.927 771.083 330.083 771.5 331.125C771.917 332.146 772.479 333.021 773.188 333.75C773.917 334.458 774.75 335 775.688 335.375C776.646 335.75 777.667 335.958 778.75 336ZM850.188 311.031C849.021 309.365 847.969 308.188 847.031 307.5C846.094 306.792 845.083 306.292 844 306C842.917 305.688 841.781 305.531 840.594 305.531C838.844 305.531 837.219 305.927 835.719 306.719C834.219 307.49 832.917 308.552 831.812 309.906C830.729 311.24 829.875 312.802 829.25 314.594C828.625 316.365 828.312 318.25 828.312 320.25C828.312 322.271 828.615 324.177 829.219 325.969C829.844 327.74 830.698 329.292 831.781 330.625C832.865 331.958 834.156 333.021 835.656 333.812C837.156 334.583 838.802 334.969 840.594 334.969C841.844 334.969 843.01 334.771 844.094 334.375C845.177 333.958 846.156 333.417 847.031 332.75C847.927 332.083 848.708 331.323 849.375 330.469C850.042 329.594 850.562 328.688 850.938 327.75L861 330.562C860.354 332.604 859.406 334.5 858.156 336.25C856.906 337.979 855.396 339.479 853.625 340.75C851.875 342.021 849.896 343.021 847.688 343.75C845.5 344.479 843.135 344.844 840.594 344.844C838.448 344.844 836.396 344.552 834.438 343.969C832.479 343.385 830.646 342.562 828.938 341.5C827.25 340.438 825.708 339.156 824.312 337.656C822.938 336.156 821.76 334.5 820.781 332.688C819.802 330.854 819.042 328.896 818.5 326.812C817.958 324.708 817.688 322.521 817.688 320.25C817.688 316.854 818.281 313.677 819.469 310.719C820.656 307.74 822.281 305.146 824.344 302.938C826.406 300.708 828.823 298.958 831.594 297.688C834.385 296.396 837.385 295.75 840.594 295.75C843.156 295.75 845.312 296.073 847.062 296.719C848.812 297.344 850.74 298.594 852.844 300.469H859.844V311.031H850.188ZM891.062 296.625H911.344V305.219H907.125L894.469 344H881.656L869.375 305.219H864.812V296.625H885.125V305.219H880.062L888.312 332.094L896.531 305.219H891.062V296.625Z" fill="#E5E5E5"/>
</svg>
