<svg width="1349" height="643" viewBox="0 0 1349 643" fill="none" xmlns="http://www.w3.org/2000/svg">
<rect width="1349" height="643" fill="#F3F4F6"/>
<rect width="30" height="643" fill="#5EEAD4"/>
<rect width="16.0866" height="4.28975" rx="2.14487" transform="matrix(0.659589 0.751626 -0.659589 0.751626 10.8295 309)" fill="#1F2937"/>
<rect width="16.0866" height="4.28975" rx="2.14487" transform="matrix(0.659589 -0.751626 0.659589 0.751626 8 330.211)" fill="#1F2937"/>
<path d="M70.576 46.9879V44.4468L74.3879 29.1996L89.635 16.4938L103.612 15.2231L118.859 21.5761L122.67 27.9291L112.506 22.8467H103.612L89.635 31.7408L85.8233 40.635V46.9879H70.576Z" fill="#5EEAD4"/>
<path d="M95.988 66.0468H102.341L108.694 72.3999V81.294L112.506 86.3763L116.266 93.9999H117.409H136.647V53.3914L108.694 53.341H95.988V66.0468Z" fill="#EF4444"/>
<path d="M136.647 54.6116H123.941V94H136.647V54.6116Z" fill="#F87171"/>
<path d="M87.0939 45.7174H70.576V91.4588H87.0939V73.6703L89.635 69.8586L95.988 67.3174V60.9645L98.5291 57.1526H106.153L117.588 45.7174H87.0939Z" fill="#EF4444"/>
<path d="M75.6583 83.8351H70.576V92.7292H75.6583V83.8351Z" fill="#FECACA"/>
<path d="M84.5527 53.341V62.2351L87.7291 63.5057L90.9056 60.9645V53.341H84.5527Z" fill="#F39200"/>
<path d="M107.423 57.2003H95.988V59.6466H107.423V57.2003Z" fill="#1F2937"/>
<path d="M111.235 53.3884H99.7997V55.8347H111.235V53.3884Z" fill="#1F2937"/>
<path d="M115.047 49.5766H103.612V52.0229H115.047V49.5766Z" fill="#1F2937"/>
<path d="M90.9055 53.3409V60.3292C90.9055 62.0836 89.4834 63.5057 87.7291 63.5057C85.9747 63.5057 84.5526 62.0836 84.5526 60.3292V53.3409" fill="#FECACA"/>
<path d="M87.7291 64.7289C85.3032 64.7289 83.3295 62.755 83.3295 60.3291V53.3408H85.7758V60.3291C85.7758 61.4061 86.6521 62.2826 87.7291 62.2826C88.8061 62.2826 89.6824 61.4063 89.6824 60.3291V53.3408H92.1287V60.3291C92.1287 62.755 90.155 64.7289 87.7291 64.7289Z" fill="#1F2937"/>
<path d="M79.4702 61.0119H75.6585V63.4583H79.4702V61.0119Z" fill="white"/>
<path d="M69.3529 93.9524H88.3169V77.4822C88.3169 73.2523 91.758 69.8112 95.9879 69.8112H97.211V60.9645H94.7647V67.4384C89.7609 68.0443 85.8706 72.3175 85.8706 77.4822V91.5061H76.8817V83.8825H73.1173V86.3288H74.4354V91.5061H71.7992V60.917H80.7408V58.4707H71.7992V48.2112H118.859V45.7649H69.3529V93.9524Z" fill="#1F2937"/>
<path d="M130.247 44.4467C130.247 44.25 130.244 44.0538 130.239 43.8584C129.924 27.3407 116.391 14 99.7997 14C83.0113 14 69.3529 27.6584 69.3529 44.4467H71.7992C71.7992 44.0049 71.8108 43.5657 71.8312 43.1287H80.7408V40.6824H72.0531C72.1151 40.2237 72.188 39.7685 72.2718 39.3169H78.1996V36.8706H72.8413C72.9708 36.4107 73.1111 35.9553 73.2633 35.5052H75.6585V33.0589H74.2219C78.5933 23.2789 88.4131 16.4463 99.7997 16.4463C108.18 16.4463 115.711 20.1477 120.847 26.0005C117.077 23.2497 112.437 21.6235 107.423 21.6235C94.8384 21.6235 84.6001 31.8618 84.6001 44.4467H87.0464C87.0464 33.2107 96.1875 24.0698 107.423 24.0698C118.484 24.0698 127.514 32.9275 127.794 43.9215C127.797 44.0963 127.8 44.2712 127.8 44.4468L130.247 44.4467Z" fill="#1F2937"/>
<path d="M136.647 53.3884H113.776V55.8347H136.647V53.3884Z" fill="#1F2937"/>
<path d="M109.917 82.5646H107.471V74.9409C107.471 70.7113 104.03 67.2701 99.7997 67.2701V64.8238C105.378 64.8238 109.917 69.3624 109.917 74.9409V82.5646Z" fill="#1F2937"/>
<path d="M113.729 80.0234H111.283V86.3763H113.729V80.0234Z" fill="#1F2937"/>
<path d="M117.541 85.1057H115.094V93.9998H117.541V85.1057Z" fill="#1F2937"/>
<path d="M726.875 165.938H757.344V178.828H749.844V224.156H757.344V237H726.875V224.156H734.281V205.969H702.219V224.156H709.719V237H679.297V224.156H686.656V178.828H679.297V165.938H709.719V178.828H702.219V193.594H734.281V178.828H726.875V165.938ZM778.953 215.766L779.094 217.219C779.438 218.625 780.016 219.859 780.828 220.922C781.672 221.984 782.656 222.875 783.781 223.594C784.906 224.312 786.156 224.859 787.531 225.234C788.906 225.578 790.297 225.75 791.703 225.75C793.109 225.75 794.438 225.672 795.688 225.516C796.969 225.328 798.203 225.094 799.391 224.812C800.578 224.5 801.734 224.156 802.859 223.781C803.984 223.375 805.125 222.953 806.281 222.516L811.438 232.125C809.656 233.219 808.016 234.156 806.516 234.938C805.047 235.688 803.562 236.312 802.062 236.812C800.562 237.312 798.969 237.672 797.281 237.891C795.594 238.141 793.625 238.266 791.375 238.266C787.156 238.266 783.406 237.578 780.125 236.203C776.844 234.797 774.078 232.906 771.828 230.531C769.609 228.156 767.906 225.375 766.719 222.188C765.562 219 764.984 215.625 764.984 212.062C764.984 208.5 765.594 205.156 766.812 202.031C768.062 198.906 769.812 196.188 772.062 193.875C774.312 191.531 777 189.688 780.125 188.344C783.25 187 786.719 186.328 790.531 186.328C794.344 186.328 797.719 186.969 800.656 188.25C803.625 189.5 806.125 191.25 808.156 193.5C810.188 195.719 811.75 198.344 812.844 201.375C813.938 204.375 814.531 207.609 814.625 211.078C814.719 211.859 814.766 212.641 814.766 213.422C814.797 214.172 814.781 214.953 814.719 215.766H778.953ZM790.156 198.047C788.406 198.047 786.906 198.266 785.656 198.703C784.438 199.109 783.406 199.688 782.562 200.438C781.719 201.156 781.047 201.984 780.547 202.922C780.047 203.859 779.656 204.844 779.375 205.875H799.672C799.453 204.812 799.141 203.812 798.734 202.875C798.328 201.938 797.766 201.109 797.047 200.391C796.328 199.672 795.406 199.109 794.281 198.703C793.188 198.266 791.812 198.047 790.156 198.047ZM820.953 164.062H842.844V224.156H850.344V237H820.953V224.156H828.453V176.906H820.953V164.062ZM857.516 164.062H879.406V224.156H886.906V237H857.516V224.156H865.016V176.906H857.516V164.062ZM894.688 212.531C894.688 209 895.328 205.688 896.609 202.594C897.891 199.5 899.672 196.797 901.953 194.484C904.234 192.172 906.953 190.344 910.109 189C913.266 187.656 916.734 186.984 920.516 186.984C924.297 186.984 927.766 187.656 930.922 189C934.109 190.344 936.844 192.172 939.125 194.484C941.406 196.797 943.172 199.5 944.422 202.594C945.703 205.688 946.344 209 946.344 212.531C946.344 216.062 945.719 219.391 944.469 222.516C943.25 225.609 941.5 228.328 939.219 230.672C936.969 232.984 934.25 234.812 931.062 236.156C927.906 237.5 924.391 238.172 920.516 238.172C916.609 238.172 913.062 237.5 909.875 236.156C906.719 234.812 904.016 232.984 901.766 230.672C899.516 228.359 897.766 225.656 896.516 222.562C895.297 219.438 894.688 216.094 894.688 212.531ZM908.703 212.531C908.703 214.375 909.016 216.078 909.641 217.641C910.266 219.172 911.109 220.5 912.172 221.625C913.266 222.75 914.516 223.625 915.922 224.25C917.359 224.875 918.891 225.188 920.516 225.188C922.172 225.188 923.703 224.891 925.109 224.297C926.547 223.672 927.781 222.797 928.812 221.672C929.875 220.547 930.703 219.219 931.297 217.688C931.891 216.125 932.188 214.406 932.188 212.531C932.188 210.594 931.891 208.844 931.297 207.281C930.703 205.719 929.875 204.391 928.812 203.297C927.781 202.203 926.547 201.375 925.109 200.812C923.703 200.219 922.172 199.938 920.516 199.969C918.891 199.938 917.359 200.219 915.922 200.812C914.516 201.375 913.266 202.203 912.172 203.297C911.109 204.391 910.266 205.719 909.641 207.281C909.016 208.844 908.703 210.594 908.703 212.531ZM959.328 223.734L973.625 228.75L960.266 254.109L950.656 250.453L959.328 223.734ZM679.297 284.938H709.719V297.781H702.219V343.156H709.719V356H679.297V343.156H686.656V297.781H679.297V284.938ZM721.578 279.406L735.875 284.375L722.516 309.734L712.906 306.078L721.578 279.406ZM740.75 307.438H762.969V311.656C764.969 310.062 767.219 308.797 769.719 307.859C772.219 306.922 774.797 306.453 777.453 306.453C781.141 306.453 784.297 307.109 786.922 308.422C789.578 309.703 791.656 311.672 793.156 314.328C794.188 313.172 795.344 312.125 796.625 311.188C797.938 310.219 799.328 309.391 800.797 308.703C802.266 307.984 803.797 307.438 805.391 307.062C807.016 306.656 808.672 306.453 810.359 306.453C816.297 306.453 820.859 308.094 824.047 311.375C827.234 314.656 828.828 319.453 828.828 325.766V343.156H835.719V356H813.547V328.156C813.547 325.406 812.828 323.25 811.391 321.688C809.984 320.125 808.016 319.344 805.484 319.344C803.734 319.344 802.078 319.766 800.516 320.609C798.984 321.422 797.453 322.844 795.922 324.875C795.953 325.219 795.969 325.578 795.969 325.953C795.969 326.297 795.969 326.656 795.969 327.031V343.156H803V356H780.828V328.062C780.828 326.75 780.625 325.562 780.219 324.5C779.812 323.438 779.25 322.531 778.531 321.781C777.812 321.031 776.953 320.453 775.953 320.047C774.984 319.609 773.906 319.375 772.719 319.344C771.156 319.312 769.531 319.656 767.844 320.375C766.188 321.094 764.594 322.422 763.062 324.359V343.156H770.844V356H740.656V343.156H747.875V320.281H740.75V307.438ZM896.656 304.953C896.5 303.859 896.109 302.828 895.484 301.859C894.891 300.891 894.109 300.062 893.141 299.375C892.203 298.656 891.125 298.094 889.906 297.688C888.719 297.281 887.469 297.078 886.156 297.078C884.969 297.078 883.859 297.203 882.828 297.453C881.797 297.703 880.891 298.094 880.109 298.625C879.359 299.125 878.75 299.781 878.281 300.594C877.844 301.406 877.625 302.375 877.625 303.5C877.625 304.906 877.922 306.031 878.516 306.875C879.141 307.688 879.922 308.359 880.859 308.891C881.828 309.422 882.891 309.844 884.047 310.156C885.203 310.469 886.328 310.812 887.422 311.188L900.312 315.5C902.094 316.125 903.766 316.984 905.328 318.078C906.891 319.172 908.234 320.5 909.359 322.062C910.516 323.625 911.422 325.422 912.078 327.453C912.734 329.484 913.062 331.766 913.062 334.297C913.062 337.734 912.422 340.875 911.141 343.719C909.891 346.562 908.125 349 905.844 351.031C903.562 353.062 900.828 354.641 897.641 355.766C894.453 356.891 890.922 357.453 887.047 357.453C884.328 357.453 881.75 357.141 879.312 356.516C876.906 355.922 874.703 355.047 872.703 353.891C870.703 352.734 868.953 351.359 867.453 349.766C865.953 348.141 864.781 346.312 863.938 344.281H859.109V330.172H876.078V333.078C876.078 334.484 876.297 335.781 876.734 336.969C877.203 338.156 877.891 339.188 878.797 340.062C879.703 340.938 880.844 341.625 882.219 342.125C883.594 342.594 885.203 342.828 887.047 342.828C889.859 342.828 892 342.188 893.469 340.906C894.938 339.594 895.672 337.781 895.672 335.469C895.672 334.281 895.406 333.297 894.875 332.516C894.375 331.703 893.719 331.031 892.906 330.5C892.094 329.938 891.188 329.469 890.188 329.094C889.188 328.719 888.203 328.375 887.234 328.062L876.5 324.594C874.469 323.969 872.5 323.094 870.594 321.969C868.719 320.844 867.047 319.438 865.578 317.75C864.141 316.062 862.984 314.094 862.109 311.844C861.266 309.562 860.844 306.969 860.844 304.062C860.844 300.688 861.469 297.688 862.719 295.062C863.969 292.406 865.719 290.172 867.969 288.359C870.219 286.547 872.891 285.172 875.984 284.234C879.078 283.297 882.469 282.828 886.156 282.828C889.062 282.828 891.75 283.172 894.219 283.859C896.688 284.516 898.891 285.406 900.828 286.531C902.797 287.656 904.453 288.953 905.797 290.422C907.172 291.859 908.219 293.359 908.938 294.922H913.625V309.078H896.656V304.953ZM918.266 283.062H940.156V311.938C942 310.25 944.016 308.938 946.203 308C948.422 307.031 950.859 306.547 953.516 306.547C959.359 306.547 963.828 308.188 966.922 311.469C970.016 314.719 971.562 319.484 971.562 325.766V343.156H978.688V356H956.984V329.047C956.984 326.328 956.312 324.188 954.969 322.625C953.625 321.062 951.891 320.281 949.766 320.281C948.359 320.281 946.828 320.672 945.172 321.453C943.516 322.234 941.844 323.375 940.156 324.875V343.156H947.281V356H918.266V343.156H925.766V295.906H918.266V283.062ZM1014.17 353.375C1013.08 354.062 1012.08 354.656 1011.17 355.156C1010.27 355.625 1009.36 356 1008.45 356.281C1007.55 356.594 1006.61 356.812 1005.64 356.938C1004.67 357.094 1003.61 357.172 1002.45 357.172C999.547 357.172 996.938 356.781 994.625 356C992.344 355.188 990.406 354.094 988.812 352.719C987.25 351.312 986.047 349.672 985.203 347.797C984.359 345.891 983.938 343.828 983.938 341.609C983.938 339.359 984.359 337.281 985.203 335.375C986.078 333.469 987.328 331.844 988.953 330.5C990.578 329.125 992.562 328.062 994.906 327.312C997.281 326.531 999.984 326.141 1003.02 326.141C1005.23 326.141 1007.25 326.266 1009.06 326.516C1010.91 326.734 1012.61 327.016 1014.17 327.359V325.859C1014.17 324.641 1013.94 323.594 1013.47 322.719C1013 321.812 1012.34 321.078 1011.5 320.516C1010.66 319.922 1009.64 319.5 1008.45 319.25C1007.27 318.969 1005.97 318.828 1004.56 318.828C1001.62 318.828 999.031 319.125 996.781 319.719C994.562 320.281 992.422 321.109 990.359 322.203L985.859 313.109C989.047 310.922 992.375 309.25 995.844 308.094C999.344 306.938 1003.05 306.359 1006.95 306.359C1009.98 306.359 1012.78 306.703 1015.34 307.391C1017.94 308.047 1020.16 309.141 1022 310.672C1023.84 312.172 1025.28 314.141 1026.31 316.578C1027.38 319.016 1027.91 321.984 1027.91 325.484V343.156H1034.42V356H1014.17V353.375ZM1003.48 346.109C1005.7 346.109 1007.72 345.75 1009.53 345.031C1011.34 344.312 1012.89 343.438 1014.17 342.406V336.219H1002.92C1002.2 336.219 1001.5 336.328 1000.81 336.547C1000.12 336.766 999.5 337.078 998.938 337.484C998.406 337.891 997.969 338.391 997.625 338.984C997.312 339.578 997.156 340.266 997.156 341.047C997.156 342.484 997.672 343.688 998.703 344.656C999.766 345.625 1001.36 346.109 1003.48 346.109ZM1043.23 283.062H1065.12V311.938C1066.97 310.25 1068.98 308.938 1071.17 308C1073.39 307.031 1075.83 306.547 1078.48 306.547C1084.33 306.547 1088.8 308.188 1091.89 311.469C1094.98 314.719 1096.53 319.484 1096.53 325.766V343.156H1103.66V356H1081.95V329.047C1081.95 326.328 1081.28 324.188 1079.94 322.625C1078.59 321.062 1076.86 320.281 1074.73 320.281C1073.33 320.281 1071.8 320.672 1070.14 321.453C1068.48 322.234 1066.81 323.375 1065.12 324.875V343.156H1072.25V356H1043.23V343.156H1050.73V295.906H1043.23V283.062ZM1121.89 334.766L1122.03 336.219C1122.38 337.625 1122.95 338.859 1123.77 339.922C1124.61 340.984 1125.59 341.875 1126.72 342.594C1127.84 343.312 1129.09 343.859 1130.47 344.234C1131.84 344.578 1133.23 344.75 1134.64 344.75C1136.05 344.75 1137.38 344.672 1138.62 344.516C1139.91 344.328 1141.14 344.094 1142.33 343.812C1143.52 343.5 1144.67 343.156 1145.8 342.781C1146.92 342.375 1148.06 341.953 1149.22 341.516L1154.38 351.125C1152.59 352.219 1150.95 353.156 1149.45 353.938C1147.98 354.688 1146.5 355.312 1145 355.812C1143.5 356.312 1141.91 356.672 1140.22 356.891C1138.53 357.141 1136.56 357.266 1134.31 357.266C1130.09 357.266 1126.34 356.578 1123.06 355.203C1119.78 353.797 1117.02 351.906 1114.77 349.531C1112.55 347.156 1110.84 344.375 1109.66 341.188C1108.5 338 1107.92 334.625 1107.92 331.062C1107.92 327.5 1108.53 324.156 1109.75 321.031C1111 317.906 1112.75 315.188 1115 312.875C1117.25 310.531 1119.94 308.688 1123.06 307.344C1126.19 306 1129.66 305.328 1133.47 305.328C1137.28 305.328 1140.66 305.969 1143.59 307.25C1146.56 308.5 1149.06 310.25 1151.09 312.5C1153.12 314.719 1154.69 317.344 1155.78 320.375C1156.88 323.375 1157.47 326.609 1157.56 330.078C1157.66 330.859 1157.7 331.641 1157.7 332.422C1157.73 333.172 1157.72 333.953 1157.66 334.766H1121.89ZM1133.09 317.047C1131.34 317.047 1129.84 317.266 1128.59 317.703C1127.38 318.109 1126.34 318.688 1125.5 319.438C1124.66 320.156 1123.98 320.984 1123.48 321.922C1122.98 322.859 1122.59 323.844 1122.31 324.875H1142.61C1142.39 323.812 1142.08 322.812 1141.67 321.875C1141.27 320.938 1140.7 320.109 1139.98 319.391C1139.27 318.672 1138.34 318.109 1137.22 317.703C1136.12 317.266 1134.75 317.047 1133.09 317.047ZM1208.94 325.109H1195.77V320.094C1194.48 320.094 1193.31 320.188 1192.25 320.375C1191.19 320.531 1190.25 320.812 1189.44 321.219C1188.66 321.625 1187.98 322.188 1187.42 322.906C1186.89 323.625 1186.52 324.516 1186.3 325.578V343.156H1196.19V356H1164.5V343.156H1171.77V320.281H1164.59V307.438H1186.2V310.859C1187.58 309.766 1189.12 308.922 1190.84 308.328C1192.56 307.734 1194.44 307.438 1196.47 307.438C1198.53 307.438 1200.66 307.453 1202.84 307.484C1205.03 307.516 1207.06 307.531 1208.94 307.531V325.109ZM715.859 462.156H722.938L719.75 451.938H697.906L694.719 462.156H702.219V475H675.266V462.156H680.562L699.922 403.938H718.719L737.656 462.156H742.812V475H715.859V462.156ZM701.609 439.938H715.953L708.734 416.828L701.609 439.938ZM778.672 441.297C778.672 440.547 778.422 439.828 777.922 439.141C777.453 438.453 776.75 437.859 775.812 437.359C774.875 436.828 773.719 436.406 772.344 436.094C771 435.781 769.469 435.625 767.75 435.625C767.094 435.625 766.391 435.688 765.641 435.812C764.891 435.906 764.188 436.094 763.531 436.375C762.906 436.656 762.375 437.047 761.938 437.547C761.531 438.016 761.328 438.625 761.328 439.375C761.328 439.75 761.375 440.109 761.469 440.453C761.594 440.797 761.812 441.125 762.125 441.438C762.438 441.75 762.859 442.047 763.391 442.328C763.953 442.578 764.672 442.781 765.547 442.938L774.359 444.672C777.547 445.297 780.219 446.078 782.375 447.016C784.531 447.953 786.266 449.047 787.578 450.297C788.891 451.547 789.828 452.938 790.391 454.469C790.984 456 791.281 457.656 791.281 459.438C791.281 462.219 790.625 464.656 789.312 466.75C788.031 468.844 786.328 470.594 784.203 472C782.109 473.375 779.734 474.406 777.078 475.094C774.453 475.812 771.797 476.172 769.109 476.172C767.359 476.172 765.766 476.062 764.328 475.844C762.922 475.625 761.641 475.328 760.484 474.953C759.359 474.578 758.344 474.141 757.438 473.641C756.562 473.109 755.75 472.531 755 471.906H746.516V458.875H759.781V459.156C759.812 460.062 760.094 460.859 760.625 461.547C761.156 462.203 761.844 462.766 762.688 463.234C763.562 463.703 764.547 464.062 765.641 464.312C766.734 464.531 767.891 464.641 769.109 464.641C771.922 464.641 773.969 464.281 775.25 463.562C776.531 462.812 777.172 461.859 777.172 460.703C777.172 459.797 776.859 459.031 776.234 458.406C775.609 457.75 774.5 457.234 772.906 456.859L763.906 454.938C758.25 453.844 753.984 452.031 751.109 449.5C748.234 446.938 746.797 443.656 746.797 439.656C746.797 437.312 747.344 435.188 748.438 433.281C749.531 431.344 751.016 429.703 752.891 428.359C754.766 426.984 756.953 425.922 759.453 425.172C761.984 424.422 764.688 424.047 767.562 424.047C769.531 424.047 771.281 424.172 772.812 424.422C774.344 424.641 775.719 424.938 776.938 425.312C778.156 425.688 779.219 426.141 780.125 426.672C781.062 427.172 781.891 427.703 782.609 428.266H790.766V441.297H778.672ZM798.266 402.062H820.156V430.938C822 429.25 824.016 427.938 826.203 427C828.422 426.031 830.859 425.547 833.516 425.547C839.359 425.547 843.828 427.188 846.922 430.469C850.016 433.719 851.562 438.484 851.562 444.766V462.156H858.688V475H836.984V448.047C836.984 445.328 836.312 443.188 834.969 441.625C833.625 440.062 831.891 439.281 829.766 439.281C828.359 439.281 826.828 439.672 825.172 440.453C823.516 441.234 821.844 442.375 820.156 443.875V462.156H827.281V475H798.266V462.156H805.766V414.906H798.266V402.062ZM908.375 444.109H895.203V439.094C893.922 439.094 892.75 439.188 891.688 439.375C890.625 439.531 889.688 439.812 888.875 440.219C888.094 440.625 887.422 441.188 886.859 441.906C886.328 442.625 885.953 443.516 885.734 444.578V462.156H895.625V475H863.938V462.156H871.203V439.281H864.031V426.438H885.641V429.859C887.016 428.766 888.562 427.922 890.281 427.328C892 426.734 893.875 426.438 895.906 426.438C897.969 426.438 900.094 426.453 902.281 426.484C904.469 426.516 906.5 426.531 908.375 426.531V444.109ZM946.203 472.375C945.109 473.062 944.109 473.656 943.203 474.156C942.297 474.625 941.391 475 940.484 475.281C939.578 475.594 938.641 475.812 937.672 475.938C936.703 476.094 935.641 476.172 934.484 476.172C931.578 476.172 928.969 475.781 926.656 475C924.375 474.188 922.438 473.094 920.844 471.719C919.281 470.312 918.078 468.672 917.234 466.797C916.391 464.891 915.969 462.828 915.969 460.609C915.969 458.359 916.391 456.281 917.234 454.375C918.109 452.469 919.359 450.844 920.984 449.5C922.609 448.125 924.594 447.062 926.938 446.312C929.312 445.531 932.016 445.141 935.047 445.141C937.266 445.141 939.281 445.266 941.094 445.516C942.938 445.734 944.641 446.016 946.203 446.359V444.859C946.203 443.641 945.969 442.594 945.5 441.719C945.031 440.812 944.375 440.078 943.531 439.516C942.688 438.922 941.672 438.5 940.484 438.25C939.297 437.969 938 437.828 936.594 437.828C933.656 437.828 931.062 438.125 928.812 438.719C926.594 439.281 924.453 440.109 922.391 441.203L917.891 432.109C921.078 429.922 924.406 428.25 927.875 427.094C931.375 425.938 935.078 425.359 938.984 425.359C942.016 425.359 944.812 425.703 947.375 426.391C949.969 427.047 952.188 428.141 954.031 429.672C955.875 431.172 957.312 433.141 958.344 435.578C959.406 438.016 959.938 440.984 959.938 444.484V462.156H966.453V475H946.203V472.375ZM935.516 465.109C937.734 465.109 939.75 464.75 941.562 464.031C943.375 463.312 944.922 462.438 946.203 461.406V455.219H934.953C934.234 455.219 933.531 455.328 932.844 455.547C932.156 455.766 931.531 456.078 930.969 456.484C930.438 456.891 930 457.391 929.656 457.984C929.344 458.578 929.188 459.266 929.188 460.047C929.188 461.484 929.703 462.688 930.734 463.656C931.797 464.625 933.391 465.109 935.516 465.109ZM997.438 426.438H1006.3V438.719H997.438V462.156H1006.39V475H976.25V462.156H983.516V438.719H976.156V426.438H983.516V418.375C983.516 415.531 984.016 413.031 985.016 410.875C986.016 408.719 987.344 406.906 989 405.438C990.688 403.969 992.625 402.859 994.812 402.109C997 401.359 999.297 400.984 1001.7 400.984C1003.48 400.984 1005.08 401.125 1006.48 401.406C1007.89 401.656 1009.12 401.984 1010.19 402.391C1011.25 402.797 1012.14 403.234 1012.86 403.703C1013.61 404.172 1014.2 404.609 1014.64 405.016L1009.25 414.906C1008.53 414.375 1007.72 413.953 1006.81 413.641C1005.91 413.328 1004.8 413.172 1003.48 413.172C1002.64 413.172 1001.84 413.312 1001.09 413.594C1000.38 413.875 999.734 414.281 999.172 414.812C998.641 415.344 998.219 416.016 997.906 416.828C997.594 417.609 997.438 418.531 997.438 419.594V426.438Z" fill="#1F2937"/>
<path d="M271.539 372V353.719C268.633 358.828 265.797 362.578 263.031 364.969C260.266 367.359 257.125 369.281 253.609 370.734C250.141 372.188 245.477 372.891 239.617 372.844C236.711 372.797 233.805 372.469 230.898 371.859C227.992 371.203 225.18 370.312 222.461 369.188C219.742 368.016 217.07 366.633 214.445 365.039C211.867 363.398 209.523 361.523 207.414 359.414C202.211 354.164 198.156 348.094 195.25 341.203C192.391 334.266 190.961 326.719 190.961 318.562C190.961 313.547 191.57 308.695 192.789 304.008C194.008 299.32 195.719 294.938 197.922 290.859C200.125 286.781 202.773 283.078 205.867 279.75C209.008 276.375 212.477 273.492 216.273 271.102C220.117 268.711 224.242 266.859 228.648 265.547C233.055 264.234 237.672 263.578 242.5 263.578C248.031 263.578 252.836 264.328 256.914 265.828C260.992 267.281 265.375 270.023 270.062 274.055H285.812V297.82H264.086C261.93 294.492 259.891 292.078 257.969 290.578C256.094 289.078 254.031 287.836 251.781 286.852C249.578 285.867 246.484 285.375 242.5 285.375C238.562 285.375 234.906 286.266 231.531 288.047C228.156 289.828 225.227 292.242 222.742 295.289C220.305 298.289 218.383 301.852 216.977 305.977C215.57 310.055 214.867 314.25 214.867 318.562C214.867 322.828 215.5 326.883 216.766 330.727C218.031 334.57 219.953 338.039 222.531 341.133C225.109 344.18 228.109 346.523 231.531 348.164C234.953 349.805 238.609 350.625 242.5 350.625C247.469 350.625 251.805 349.172 255.508 346.266C259.211 343.359 261.883 339.398 263.523 334.383H243.203V315.117H292.562V372H271.539ZM357.531 373.898C352.703 373.898 348.086 373.242 343.68 371.93C339.273 370.617 335.148 368.766 331.305 366.375C327.508 363.984 324.039 361.125 320.898 357.797C317.805 354.422 315.156 350.695 312.953 346.617C310.75 342.492 309.039 338.086 307.82 333.398C306.602 328.711 305.992 323.812 305.992 318.703C305.992 313.594 306.602 308.695 307.82 304.008C309.039 299.273 310.75 294.867 312.953 290.789C315.156 286.664 317.805 282.938 320.898 279.609C324.039 276.234 327.508 273.352 331.305 270.961C335.148 268.57 339.273 266.719 343.68 265.406C348.086 264.094 352.703 263.438 357.531 263.438C362.359 263.438 366.977 264.094 371.383 265.406C375.836 266.719 379.961 268.57 383.758 270.961C387.602 273.352 391.07 276.234 394.164 279.609C397.305 282.938 399.977 286.664 402.18 290.789C404.43 294.867 406.164 299.273 407.383 304.008C408.602 308.695 409.211 313.594 409.211 318.703C409.211 323.766 408.602 328.664 407.383 333.398C406.164 338.086 404.43 342.492 402.18 346.617C399.977 350.695 397.305 354.422 394.164 357.797C391.07 361.125 387.602 363.984 383.758 366.375C379.961 368.766 375.836 370.617 371.383 371.93C366.977 373.242 362.359 373.898 357.531 373.898ZM357.531 351.82C361.609 351.82 365.336 350.953 368.711 349.219C372.133 347.438 375.062 345.047 377.5 342.047C379.938 339 381.812 335.484 383.125 331.5C384.484 327.469 385.164 323.203 385.164 318.703C385.164 314.156 384.484 309.867 383.125 305.836C381.766 301.805 379.844 298.289 377.359 295.289C374.922 292.242 372.016 289.852 368.641 288.117C365.266 286.336 361.562 285.445 357.531 285.445C353.5 285.445 349.797 286.336 346.422 288.117C343.047 289.852 340.141 292.242 337.703 295.289C335.266 298.289 333.344 301.805 331.938 305.836C330.578 309.867 329.898 314.156 329.898 318.703C329.898 323.203 330.578 327.469 331.938 331.5C333.344 335.484 335.266 339 337.703 342.047C340.141 345.047 343.047 347.438 346.422 349.219C349.797 350.953 353.5 351.82 357.531 351.82ZM478.047 352.734H488.664L483.883 337.406H451.117L446.336 352.734H457.586V372H417.156V352.734H425.102L454.141 265.406H482.336L510.742 352.734H518.477V372H478.047V352.734ZM456.672 319.406H478.188L467.359 284.742L456.672 319.406ZM539.359 352.734H550.398V284.039H537.461V297.82H514.539V265.406H611.5V297.82H588.438V284.039H573.742V352.734H584.992V372H539.359V352.734Z" fill="#EF4444"/>
</svg>
