<svg width="320" height="320" viewBox="0 0 320 320" fill="none" xmlns="http://www.w3.org/2000/svg">
<path d="M30.3042 131.951V121.787L45.5516 60.7983L106.54 9.97504L162.446 4.89258L223.434 30.3042L238.682 55.7165L198.023 35.3867H162.446L106.54 70.9633L91.2931 106.54V131.951H30.3042Z" fill="#F3F4F6"/>
<path d="M131.952 208.187H157.364L182.775 233.6V269.176L198.023 289.505L213.065 319.999H217.635H294.588V157.565L182.775 157.364H131.952V208.187Z" fill="#EF4444"/>
<path d="M294.588 162.446H243.764V320H294.588V162.446Z" fill="#F87171"/>
<path d="M96.3755 126.87H30.3042V309.835H96.3755V238.681L106.54 223.434L131.952 213.27V187.858L142.116 172.611H172.61L218.352 126.87H96.3755Z" fill="#EF4444"/>
<path d="M50.6334 279.34H30.3042V314.917H50.6334V279.34Z" fill="#FECACA"/>
<path d="M86.2107 157.364V192.94L98.9165 198.023L111.622 187.858V157.364H86.2107Z" fill="#F39200"/>
<path d="M177.694 172.801H131.952V182.586H177.694V172.801Z" fill="#1F2937"/>
<path d="M192.941 157.554H147.199V167.339H192.941V157.554Z" fill="#1F2937"/>
<path d="M208.188 142.306H162.446V152.092H208.188V142.306Z" fill="#1F2937"/>
<path d="M111.622 157.364V185.317C111.622 192.335 105.934 198.023 98.9162 198.023C91.8989 198.023 86.2104 192.335 86.2104 185.317V157.364" fill="#FECACA"/>
<path d="M98.9163 202.915C89.2126 202.915 81.3179 195.02 81.3179 185.316V157.363H91.1031V185.316C91.1031 189.624 94.6082 193.13 98.9163 193.13C103.224 193.13 106.73 189.625 106.73 185.316V157.363H116.515V185.316C116.515 195.02 108.62 202.915 98.9163 202.915Z" fill="#1F2937"/>
<path d="M65.8808 188.048H50.634V197.833H65.8808V188.048Z" fill="white"/>
<path d="M25.4116 319.81H101.268V253.929C101.268 237.009 115.032 223.245 131.951 223.245H136.844V187.858H127.059V213.754C107.043 216.177 91.4823 233.27 91.4823 253.929V310.024H55.5267V279.53H40.4692V289.315H45.7415V310.024H35.1969V187.668H70.9633V177.883H35.1969V136.845H223.434V127.06H25.4116V319.81Z" fill="#1F2937"/>
<path d="M268.986 121.787C268.986 121 268.976 120.215 268.956 119.434C267.697 53.3629 213.566 0 147.199 0C80.0453 0 25.4116 54.6337 25.4116 121.787H35.1969C35.1969 120.019 35.2432 118.263 35.3247 116.515H70.9633V106.73H36.2126C36.4605 104.895 36.7521 103.074 37.0874 101.268H60.7984V91.4823H39.3654C39.8834 89.6427 40.4444 87.8214 41.053 86.0209H50.6341V76.2356H44.8875C62.3731 37.1155 101.652 9.78525 147.199 9.78525C180.719 9.78525 210.843 24.591 231.387 48.0019C216.308 36.9987 197.747 30.4941 177.693 30.4941C127.354 30.4941 86.4005 71.4474 86.4005 121.787H96.1858C96.1858 76.843 132.75 40.2794 177.693 40.2794C221.934 40.2794 258.056 75.7098 259.174 119.686C259.187 120.385 259.201 121.085 259.201 121.787L268.986 121.787Z" fill="#1F2937"/>
<path d="M294.588 157.554H203.105V167.339H294.588V157.554Z" fill="#1F2937"/>
<path d="M187.668 274.258H177.883V243.764C177.883 226.845 164.118 213.08 147.199 213.08V203.295C169.514 203.295 187.668 221.449 187.668 243.764V274.258Z" fill="#1F2937"/>
<path d="M202.916 264.094H193.13V289.505H202.916V264.094Z" fill="#1F2937"/>
<path d="M218.162 284.423H208.377V319.999H218.162V284.423Z" fill="#1F2937"/>
</svg>
