<svg width="1349" height="643" viewBox="0 0 1349 643" fill="none" xmlns="http://www.w3.org/2000/svg">
<rect width="1349" height="643" fill="#5EEAD4"/>
<rect width="30" height="643" fill="#F3F4F6"/>
<rect width="16.0866" height="4.28975" rx="2.14487" transform="matrix(-0.659589 -0.751626 0.659589 -0.751626 17.6105 333)" fill="#1F2937"/>
<rect width="16.0866" height="4.28975" rx="2.14487" transform="matrix(-0.659589 0.751626 -0.659589 -0.751626 20.44 311.789)" fill="#1F2937"/>
<path d="M137.304 292.951V282.787L152.552 221.798L213.54 170.975L269.446 165.893L330.434 191.304L345.682 216.717L305.023 196.387H269.446L213.54 231.963L198.293 267.54V292.951H137.304Z" fill="#F3F4F6"/>
<path d="M238.952 369.187H264.364L289.775 394.6V430.176L305.023 450.505L320.065 480.999H324.635H401.588V318.565L289.775 318.364H238.952V369.187Z" fill="#EF4444"/>
<path d="M401.588 323.446H350.764V481H401.588V323.446Z" fill="#F87171"/>
<path d="M203.376 287.87H137.304V470.835H203.376V399.681L213.54 384.434L238.952 374.27V348.858L249.116 333.611H279.61L325.352 287.87H203.376Z" fill="#EF4444"/>
<path d="M157.633 440.34H137.304V475.917H157.633V440.34Z" fill="#FECACA"/>
<path d="M193.211 318.364V353.94L205.917 359.023L218.622 348.858V318.364H193.211Z" fill="#F39200"/>
<path d="M284.694 333.801H238.952V343.586H284.694V333.801Z" fill="#1F2937"/>
<path d="M299.941 318.554H254.199V328.339H299.941V318.554Z" fill="#1F2937"/>
<path d="M315.188 303.306H269.446V313.092H315.188V303.306Z" fill="#1F2937"/>
<path d="M218.622 318.364V346.317C218.622 353.335 212.934 359.023 205.916 359.023C198.899 359.023 193.21 353.335 193.21 346.317V318.364" fill="#FECACA"/>
<path d="M205.916 363.915C196.213 363.915 188.318 356.02 188.318 346.316V318.363H198.103V346.316C198.103 350.624 201.608 354.13 205.916 354.13C210.224 354.13 213.73 350.625 213.73 346.316V318.363H223.515V346.316C223.515 356.02 215.62 363.915 205.916 363.915Z" fill="#1F2937"/>
<path d="M172.881 349.048H157.634V358.833H172.881V349.048Z" fill="white"/>
<path d="M132.412 480.81H208.268V414.929C208.268 398.009 222.032 384.245 238.951 384.245H243.844V348.858H234.059V374.754C214.043 377.177 198.482 394.27 198.482 414.929V471.024H162.527V440.53H147.469V450.315H152.741V471.024H142.197V348.668H177.963V338.883H142.197V297.845H330.434V288.06H132.412V480.81Z" fill="#1F2937"/>
<path d="M375.986 282.787C375.986 282 375.976 281.215 375.956 280.434C374.697 214.363 320.566 161 254.199 161C187.045 161 132.412 215.634 132.412 282.787H142.197C142.197 281.019 142.243 279.263 142.325 277.515H177.963V267.73H143.213C143.46 265.895 143.752 264.074 144.087 262.268H167.798V252.482H146.365C146.883 250.643 147.444 248.821 148.053 247.021H157.634V237.236H151.888C169.373 198.115 208.652 170.785 254.199 170.785C287.719 170.785 317.843 185.591 338.387 209.002C323.308 197.999 304.747 191.494 284.693 191.494C234.354 191.494 193.401 232.447 193.401 282.787H203.186C203.186 237.843 239.75 201.279 284.693 201.279C328.934 201.279 365.056 236.71 366.174 280.686C366.187 281.385 366.201 282.085 366.201 282.787L375.986 282.787Z" fill="#1F2937"/>
<path d="M401.588 318.554H310.105V328.339H401.588V318.554Z" fill="#1F2937"/>
<path d="M294.668 435.258H284.883V404.764C284.883 387.845 271.118 374.08 254.199 374.08V364.295C276.514 364.295 294.668 382.449 294.668 404.764V435.258Z" fill="#1F2937"/>
<path d="M309.916 425.094H300.13V450.505H309.916V425.094Z" fill="#1F2937"/>
<path d="M325.162 445.423H315.377V480.999H325.162V445.423Z" fill="#1F2937"/>
<path d="M955.922 499.273C955.047 498.023 954.258 497.141 953.555 496.625C952.852 496.094 952.094 495.719 951.281 495.5C950.469 495.266 949.617 495.148 948.727 495.148C947.414 495.148 946.195 495.445 945.07 496.039C943.945 496.617 942.969 497.414 942.141 498.43C941.328 499.43 940.688 500.602 940.219 501.945C939.75 503.273 939.516 504.688 939.516 506.188C939.516 507.703 939.742 509.133 940.195 510.477C940.664 511.805 941.305 512.969 942.117 513.969C942.93 514.969 943.898 515.766 945.023 516.359C946.148 516.938 947.383 517.227 948.727 517.227C949.664 517.227 950.539 517.078 951.352 516.781C952.164 516.469 952.898 516.062 953.555 515.562C954.227 515.062 954.812 514.492 955.312 513.852C955.812 513.195 956.203 512.516 956.484 511.812L964.031 513.922C963.547 515.453 962.836 516.875 961.898 518.188C960.961 519.484 959.828 520.609 958.5 521.562C957.188 522.516 955.703 523.266 954.047 523.812C952.406 524.359 950.633 524.633 948.727 524.633C947.117 524.633 945.578 524.414 944.109 523.977C942.641 523.539 941.266 522.922 939.984 522.125C938.719 521.328 937.562 520.367 936.516 519.242C935.484 518.117 934.602 516.875 933.867 515.516C933.133 514.141 932.562 512.672 932.156 511.109C931.75 509.531 931.547 507.891 931.547 506.188C931.547 503.641 931.992 501.258 932.883 499.039C933.773 496.805 934.992 494.859 936.539 493.203C938.086 491.531 939.898 490.219 941.977 489.266C944.07 488.297 946.32 487.812 948.727 487.812C950.648 487.812 952.266 488.055 953.578 488.539C954.891 489.008 956.336 489.945 957.914 491.352H963.164V499.273H955.922ZM968.109 511.766C968.109 510 968.43 508.344 969.07 506.797C969.711 505.25 970.602 503.898 971.742 502.742C972.883 501.586 974.242 500.672 975.82 500C977.398 499.328 979.133 498.992 981.023 498.992C982.914 498.992 984.648 499.328 986.227 500C987.82 500.672 989.188 501.586 990.328 502.742C991.469 503.898 992.352 505.25 992.977 506.797C993.617 508.344 993.938 510 993.938 511.766C993.938 513.531 993.625 515.195 993 516.758C992.391 518.305 991.516 519.664 990.375 520.836C989.25 521.992 987.891 522.906 986.297 523.578C984.719 524.25 982.961 524.586 981.023 524.586C979.07 524.586 977.297 524.25 975.703 523.578C974.125 522.906 972.773 521.992 971.648 520.836C970.523 519.68 969.648 518.328 969.023 516.781C968.414 515.219 968.109 513.547 968.109 511.766ZM975.117 511.766C975.117 512.688 975.273 513.539 975.586 514.32C975.898 515.086 976.32 515.75 976.852 516.312C977.398 516.875 978.023 517.312 978.727 517.625C979.445 517.938 980.211 518.094 981.023 518.094C981.852 518.094 982.617 517.945 983.32 517.648C984.039 517.336 984.656 516.898 985.172 516.336C985.703 515.773 986.117 515.109 986.414 514.344C986.711 513.562 986.859 512.703 986.859 511.766C986.859 510.797 986.711 509.922 986.414 509.141C986.117 508.359 985.703 507.695 985.172 507.148C984.656 506.602 984.039 506.188 983.32 505.906C982.617 505.609 981.852 505.469 981.023 505.484C980.211 505.469 979.445 505.609 978.727 505.906C978.023 506.188 977.398 506.602 976.852 507.148C976.32 507.695 975.898 508.359 975.586 509.141C975.273 509.922 975.117 510.797 975.117 511.766ZM1017.47 510.031C1017.47 508.672 1017.11 507.609 1016.39 506.844C1015.67 506.062 1014.72 505.672 1013.53 505.672C1012.72 505.672 1011.9 505.852 1011.07 506.211C1010.24 506.57 1009.44 507.242 1008.66 508.227V517.578H1012.59V524H997.5V517.578H1001.06V506.141H997.547V499.719H1008.61V501.852C1009.62 501.055 1010.76 500.43 1012.01 499.977C1013.27 499.508 1014.6 499.273 1015.99 499.273C1018.91 499.273 1021.16 500.094 1022.74 501.734C1024.32 503.359 1025.11 505.742 1025.11 508.883V517.578H1028.55V524H1017.47V510.031ZM1040.88 499.719H1045.73V505.859H1040.84L1040.79 516.125C1040.79 516.719 1040.84 517.203 1040.93 517.578C1041.02 517.938 1041.16 518.227 1041.33 518.445C1041.52 518.664 1041.73 518.812 1041.98 518.891C1042.23 518.969 1042.52 519.008 1042.85 519.008C1043.45 519.008 1043.97 518.953 1044.42 518.844C1044.88 518.719 1045.33 518.578 1045.78 518.422L1046.79 522.945C1045.99 523.445 1045.1 523.844 1044.12 524.141C1043.15 524.438 1041.99 524.586 1040.65 524.586C1039.7 524.586 1038.78 524.422 1037.91 524.094C1037.05 523.766 1036.29 523.273 1035.63 522.617C1034.98 521.945 1034.45 521.109 1034.06 520.109C1033.67 519.109 1033.48 517.945 1033.5 516.617L1033.57 505.859H1030.08V499.719H1033.59L1033.64 493.906L1040.93 490.438L1040.88 499.719ZM1065.4 522.688C1064.85 523.031 1064.35 523.328 1063.9 523.578C1063.45 523.812 1062.99 524 1062.54 524.141C1062.09 524.297 1061.62 524.406 1061.13 524.469C1060.65 524.547 1060.12 524.586 1059.54 524.586C1058.09 524.586 1056.78 524.391 1055.62 524C1054.48 523.594 1053.52 523.047 1052.72 522.359C1051.94 521.656 1051.34 520.836 1050.91 519.898C1050.49 518.945 1050.28 517.914 1050.28 516.805C1050.28 515.68 1050.49 514.641 1050.91 513.688C1051.35 512.734 1051.98 511.922 1052.79 511.25C1053.6 510.562 1054.59 510.031 1055.77 509.656C1056.95 509.266 1058.3 509.07 1059.82 509.07C1060.93 509.07 1061.94 509.133 1062.84 509.258C1063.77 509.367 1064.62 509.508 1065.4 509.68V508.93C1065.4 508.32 1065.28 507.797 1065.05 507.359C1064.81 506.906 1064.48 506.539 1064.06 506.258C1063.64 505.961 1063.13 505.75 1062.54 505.625C1061.95 505.484 1061.3 505.414 1060.59 505.414C1059.12 505.414 1057.83 505.562 1056.7 505.859C1055.59 506.141 1054.52 506.555 1053.49 507.102L1051.24 502.555C1052.84 501.461 1054.5 500.625 1056.23 500.047C1057.98 499.469 1059.84 499.18 1061.79 499.18C1063.3 499.18 1064.7 499.352 1065.98 499.695C1067.28 500.023 1068.39 500.57 1069.31 501.336C1070.23 502.086 1070.95 503.07 1071.47 504.289C1072 505.508 1072.27 506.992 1072.27 508.742V517.578H1075.52V524H1065.4V522.688ZM1060.05 519.055C1061.16 519.055 1062.17 518.875 1063.08 518.516C1063.98 518.156 1064.76 517.719 1065.4 517.203V514.109H1059.77C1059.41 514.109 1059.06 514.164 1058.72 514.273C1058.38 514.383 1058.06 514.539 1057.78 514.742C1057.52 514.945 1057.3 515.195 1057.12 515.492C1056.97 515.789 1056.89 516.133 1056.89 516.523C1056.89 517.242 1057.15 517.844 1057.66 518.328C1058.2 518.812 1058.99 519.055 1060.05 519.055ZM1098.66 508.109C1097.98 507.266 1097.23 506.633 1096.41 506.211C1095.58 505.773 1094.6 505.586 1093.48 505.648C1092.57 505.586 1091.74 505.711 1090.99 506.023C1090.26 506.336 1089.62 506.773 1089.07 507.336C1088.54 507.898 1088.12 508.57 1087.83 509.352C1087.53 510.117 1087.38 510.984 1087.38 511.953C1087.38 512.812 1087.54 513.625 1087.85 514.391C1088.16 515.156 1088.59 515.82 1089.12 516.383C1089.66 516.93 1090.3 517.359 1091.04 517.672C1091.79 517.984 1092.6 518.172 1093.48 518.234C1094.21 518.172 1094.88 518.023 1095.47 517.789C1096.08 517.539 1096.62 517.227 1097.09 516.852C1097.55 516.461 1097.95 516.031 1098.28 515.562C1098.62 515.078 1098.89 514.625 1099.08 514.203L1105.52 515.984C1105.26 516.922 1104.8 517.898 1104.14 518.914C1103.5 519.93 1102.66 520.859 1101.61 521.703C1100.58 522.531 1099.34 523.219 1097.91 523.766C1096.48 524.312 1094.86 524.586 1093.03 524.586C1091.17 524.586 1089.46 524.25 1087.9 523.578C1086.34 522.891 1084.99 521.961 1083.87 520.789C1082.74 519.617 1081.86 518.242 1081.22 516.664C1080.59 515.086 1080.28 513.391 1080.28 511.578C1080.28 509.781 1080.6 508.117 1081.24 506.586C1081.9 505.039 1082.8 503.695 1083.94 502.555C1085.08 501.398 1086.43 500.5 1087.99 499.859C1089.57 499.219 1091.28 498.93 1093.12 498.992C1094.44 498.93 1095.71 499.078 1096.95 499.438C1098.18 499.797 1099.35 500.336 1100.46 501.055H1105.12V508.109H1098.66ZM1117.29 499.719H1122.14V505.859H1117.24L1117.2 516.125C1117.2 516.719 1117.24 517.203 1117.34 517.578C1117.43 517.938 1117.56 518.227 1117.73 518.445C1117.92 518.664 1118.14 518.812 1118.39 518.891C1118.64 518.969 1118.93 519.008 1119.26 519.008C1119.85 519.008 1120.38 518.953 1120.83 518.844C1121.28 518.719 1121.73 518.578 1122.19 518.422L1123.2 522.945C1122.4 523.445 1121.51 523.844 1120.52 524.141C1119.55 524.438 1118.4 524.586 1117.05 524.586C1116.1 524.586 1115.19 524.422 1114.31 524.094C1113.45 523.766 1112.7 523.273 1112.04 522.617C1111.38 521.945 1110.86 521.109 1110.47 520.109C1110.08 519.109 1109.89 517.945 1109.91 516.617L1109.98 505.859H1106.48V499.719H1110L1110.05 493.906L1117.34 490.438L1117.29 499.719Z" fill="#1F2937"/>
<path d="M862.172 414.469H875.812C877.438 414.469 878.992 414.68 880.477 415.102C881.977 415.523 883.367 416.117 884.648 416.883C885.945 417.648 887.117 418.57 888.164 419.648C889.227 420.711 890.133 421.898 890.883 423.211C891.633 424.523 892.211 425.938 892.617 427.453C893.023 428.969 893.227 430.547 893.227 432.188C893.227 433.828 893.023 435.406 892.617 436.922C892.211 438.438 891.633 439.859 890.883 441.188C890.133 442.5 889.227 443.703 888.164 444.797C887.117 445.875 885.945 446.805 884.648 447.586C883.367 448.352 881.977 448.945 880.477 449.367C878.992 449.789 877.438 450 875.812 450H862.172V443.578H865.008V420.914H862.172V414.469ZM872.789 420.914V443.578H875.766C877.031 443.578 878.227 443.281 879.352 442.688C880.477 442.094 881.453 441.289 882.281 440.273C883.109 439.242 883.766 438.039 884.25 436.664C884.734 435.273 884.977 433.781 884.977 432.188C884.977 430.609 884.734 429.133 884.25 427.758C883.766 426.383 883.109 425.188 882.281 424.172C881.453 423.156 880.477 422.359 879.352 421.781C878.227 421.203 877.031 420.914 875.766 420.914H872.789ZM896.344 437.766C896.344 436 896.664 434.344 897.305 432.797C897.945 431.25 898.836 429.898 899.977 428.742C901.117 427.586 902.477 426.672 904.055 426C905.633 425.328 907.367 424.992 909.258 424.992C911.148 424.992 912.883 425.328 914.461 426C916.055 426.672 917.422 427.586 918.562 428.742C919.703 429.898 920.586 431.25 921.211 432.797C921.852 434.344 922.172 436 922.172 437.766C922.172 439.531 921.859 441.195 921.234 442.758C920.625 444.305 919.75 445.664 918.609 446.836C917.484 447.992 916.125 448.906 914.531 449.578C912.953 450.25 911.195 450.586 909.258 450.586C907.305 450.586 905.531 450.25 903.938 449.578C902.359 448.906 901.008 447.992 899.883 446.836C898.758 445.68 897.883 444.328 897.258 442.781C896.648 441.219 896.344 439.547 896.344 437.766ZM903.352 437.766C903.352 438.688 903.508 439.539 903.82 440.32C904.133 441.086 904.555 441.75 905.086 442.312C905.633 442.875 906.258 443.312 906.961 443.625C907.68 443.938 908.445 444.094 909.258 444.094C910.086 444.094 910.852 443.945 911.555 443.648C912.273 443.336 912.891 442.898 913.406 442.336C913.938 441.773 914.352 441.109 914.648 440.344C914.945 439.562 915.094 438.703 915.094 437.766C915.094 436.797 914.945 435.922 914.648 435.141C914.352 434.359 913.938 433.695 913.406 433.148C912.891 432.602 912.273 432.188 911.555 431.906C910.852 431.609 910.086 431.469 909.258 431.484C908.445 431.469 907.68 431.609 906.961 431.906C906.258 432.188 905.633 432.602 905.086 433.148C904.555 433.695 904.133 434.359 903.82 435.141C903.508 435.922 903.352 436.797 903.352 437.766ZM924.82 425.719H937.5V432.141H934.758L937.336 440.789L942.328 425.719H949.195L954.234 441.562L957.328 432.141H954.727V425.719H967.406V432.141H964.148L957.656 450.094H950.648L945.562 434.602L940.383 450.094H933.562L927.539 432.141H924.82V425.719ZM990.188 436.031C990.188 434.672 989.828 433.609 989.109 432.844C988.391 432.062 987.438 431.672 986.25 431.672C985.438 431.672 984.617 431.852 983.789 432.211C982.961 432.57 982.156 433.242 981.375 434.227V443.578H985.312V450H970.219V443.578H973.781V432.141H970.266V425.719H981.328V427.852C982.344 427.055 983.477 426.43 984.727 425.977C985.992 425.508 987.32 425.273 988.711 425.273C991.633 425.273 993.883 426.094 995.461 427.734C997.039 429.359 997.828 431.742 997.828 434.883V443.578H1001.27V450H990.188V436.031ZM1003.95 413.531H1014.89V443.578H1018.64V450H1003.95V443.578H1007.7V419.953H1003.95V413.531ZM1022.53 437.766C1022.53 436 1022.85 434.344 1023.49 432.797C1024.13 431.25 1025.02 429.898 1026.16 428.742C1027.3 427.586 1028.66 426.672 1030.24 426C1031.82 425.328 1033.55 424.992 1035.45 424.992C1037.34 424.992 1039.07 425.328 1040.65 426C1042.24 426.672 1043.61 427.586 1044.75 428.742C1045.89 429.898 1046.77 431.25 1047.4 432.797C1048.04 434.344 1048.36 436 1048.36 437.766C1048.36 439.531 1048.05 441.195 1047.42 442.758C1046.81 444.305 1045.94 445.664 1044.8 446.836C1043.67 447.992 1042.31 448.906 1040.72 449.578C1039.14 450.25 1037.38 450.586 1035.45 450.586C1033.49 450.586 1031.72 450.25 1030.12 449.578C1028.55 448.906 1027.2 447.992 1026.07 446.836C1024.95 445.68 1024.07 444.328 1023.45 442.781C1022.84 441.219 1022.53 439.547 1022.53 437.766ZM1029.54 437.766C1029.54 438.688 1029.7 439.539 1030.01 440.32C1030.32 441.086 1030.74 441.75 1031.27 442.312C1031.82 442.875 1032.45 443.312 1033.15 443.625C1033.87 443.938 1034.63 444.094 1035.45 444.094C1036.27 444.094 1037.04 443.945 1037.74 443.648C1038.46 443.336 1039.08 442.898 1039.59 442.336C1040.12 441.773 1040.54 441.109 1040.84 440.344C1041.13 439.562 1041.28 438.703 1041.28 437.766C1041.28 436.797 1041.13 435.922 1040.84 435.141C1040.54 434.359 1040.12 433.695 1039.59 433.148C1039.08 432.602 1038.46 432.188 1037.74 431.906C1037.04 431.609 1036.27 431.469 1035.45 431.484C1034.63 431.469 1033.87 431.609 1033.15 431.906C1032.45 432.188 1031.82 432.602 1031.27 433.148C1030.74 433.695 1030.32 434.359 1030.01 435.141C1029.7 435.922 1029.54 436.797 1029.54 437.766ZM1066.85 448.688C1066.3 449.031 1065.8 449.328 1065.35 449.578C1064.9 449.812 1064.45 450 1063.99 450.141C1063.54 450.297 1063.07 450.406 1062.59 450.469C1062.1 450.547 1061.57 450.586 1060.99 450.586C1059.54 450.586 1058.23 450.391 1057.08 450C1055.94 449.594 1054.97 449.047 1054.17 448.359C1053.39 447.656 1052.79 446.836 1052.37 445.898C1051.95 444.945 1051.73 443.914 1051.73 442.805C1051.73 441.68 1051.95 440.641 1052.37 439.688C1052.8 438.734 1053.43 437.922 1054.24 437.25C1055.05 436.562 1056.05 436.031 1057.22 435.656C1058.41 435.266 1059.76 435.07 1061.27 435.07C1062.38 435.07 1063.39 435.133 1064.3 435.258C1065.22 435.367 1066.07 435.508 1066.85 435.68V434.93C1066.85 434.32 1066.73 433.797 1066.5 433.359C1066.27 432.906 1065.94 432.539 1065.52 432.258C1065.09 431.961 1064.59 431.75 1063.99 431.625C1063.4 431.484 1062.75 431.414 1062.05 431.414C1060.58 431.414 1059.28 431.562 1058.16 431.859C1057.05 432.141 1055.98 432.555 1054.95 433.102L1052.7 428.555C1054.29 427.461 1055.95 426.625 1057.69 426.047C1059.44 425.469 1061.29 425.18 1063.24 425.18C1064.76 425.18 1066.16 425.352 1067.44 425.695C1068.73 426.023 1069.84 426.57 1070.77 427.336C1071.69 428.086 1072.41 429.07 1072.92 430.289C1073.45 431.508 1073.72 432.992 1073.72 434.742V443.578H1076.98V450H1066.85V448.688ZM1061.51 445.055C1062.62 445.055 1063.62 444.875 1064.53 444.516C1065.44 444.156 1066.21 443.719 1066.85 443.203V440.109H1061.23C1060.87 440.109 1060.52 440.164 1060.17 440.273C1059.83 440.383 1059.52 440.539 1059.23 440.742C1058.97 440.945 1058.75 441.195 1058.58 441.492C1058.42 441.789 1058.34 442.133 1058.34 442.523C1058.34 443.242 1058.6 443.844 1059.12 444.328C1059.65 444.812 1060.45 445.055 1061.51 445.055ZM1096.29 413.531H1106.91V443.578H1111.64V450H1099.69V449.062C1098.84 449.5 1097.98 449.844 1097.09 450.094C1096.21 450.344 1095.32 450.469 1094.41 450.469C1092.55 450.469 1090.84 450.141 1089.28 449.484C1087.73 448.812 1086.4 447.898 1085.27 446.742C1084.16 445.586 1083.3 444.234 1082.67 442.688C1082.05 441.125 1081.73 439.453 1081.73 437.672C1081.73 435.891 1082.04 434.234 1082.65 432.703C1083.27 431.156 1084.13 429.812 1085.23 428.672C1086.34 427.531 1087.66 426.633 1089.19 425.977C1090.73 425.32 1092.43 424.992 1094.27 424.992C1095.29 424.992 1096.24 425.094 1097.13 425.297C1098.02 425.484 1098.88 425.758 1099.69 426.117V419.953H1096.29V413.531ZM1094.81 444C1095.84 443.969 1096.77 443.703 1097.6 443.203C1098.45 442.703 1099.14 442.047 1099.69 441.234V434.086C1099.14 433.258 1098.43 432.617 1097.55 432.164C1096.7 431.695 1095.78 431.469 1094.81 431.484C1094 431.469 1093.23 431.609 1092.52 431.906C1091.81 432.203 1091.19 432.625 1090.64 433.172C1090.11 433.719 1089.69 434.375 1089.38 435.141C1089.06 435.906 1088.91 436.773 1088.91 437.742C1088.91 438.695 1089.06 439.562 1089.38 440.344C1089.69 441.109 1090.11 441.766 1090.64 442.312C1091.19 442.844 1091.81 443.25 1092.52 443.531C1093.23 443.812 1094 443.969 1094.81 444ZM1148.39 425.273C1147.52 424.023 1146.73 423.141 1146.02 422.625C1145.32 422.094 1144.56 421.719 1143.75 421.5C1142.94 421.266 1142.09 421.148 1141.2 421.148C1139.88 421.148 1138.66 421.445 1137.54 422.039C1136.41 422.617 1135.44 423.414 1134.61 424.43C1133.8 425.43 1133.16 426.602 1132.69 427.945C1132.22 429.273 1131.98 430.688 1131.98 432.188C1131.98 433.703 1132.21 435.133 1132.66 436.477C1133.13 437.805 1133.77 438.969 1134.59 439.969C1135.4 440.969 1136.37 441.766 1137.49 442.359C1138.62 442.938 1139.85 443.227 1141.2 443.227C1142.13 443.227 1143.01 443.078 1143.82 442.781C1144.63 442.469 1145.37 442.062 1146.02 441.562C1146.7 441.062 1147.28 440.492 1147.78 439.852C1148.28 439.195 1148.67 438.516 1148.95 437.812L1156.5 439.922C1156.02 441.453 1155.3 442.875 1154.37 444.188C1153.43 445.484 1152.3 446.609 1150.97 447.562C1149.66 448.516 1148.17 449.266 1146.52 449.812C1144.88 450.359 1143.1 450.633 1141.2 450.633C1139.59 450.633 1138.05 450.414 1136.58 449.977C1135.11 449.539 1133.73 448.922 1132.45 448.125C1131.19 447.328 1130.03 446.367 1128.98 445.242C1127.95 444.117 1127.07 442.875 1126.34 441.516C1125.6 440.141 1125.03 438.672 1124.62 437.109C1124.22 435.531 1124.02 433.891 1124.02 432.188C1124.02 429.641 1124.46 427.258 1125.35 425.039C1126.24 422.805 1127.46 420.859 1129.01 419.203C1130.55 417.531 1132.37 416.219 1134.45 415.266C1136.54 414.297 1138.79 413.812 1141.2 413.812C1143.12 413.812 1144.73 414.055 1146.05 414.539C1147.36 415.008 1148.8 415.945 1150.38 417.352H1155.63V425.273H1148.39ZM1179.05 414.469H1194.26V420.914H1191.09L1181.6 450H1171.99L1162.78 420.914H1159.36V414.469H1174.59V420.914H1170.8L1176.98 441.07L1183.15 420.914H1179.05V414.469Z" fill="#1F2937"/>
<path d="M989.914 340.469H1005.12V346.914H1001.91L993.734 376H983.609L978.242 353.828L972.758 376H962.727L954.406 346.914H950.82V340.469H966.055V346.914H962.352L967.578 366.062L973.883 340.539H982.602L988.789 366.062L994.039 346.914H989.914V340.469ZM1007.3 363.766C1007.3 362 1007.62 360.344 1008.27 358.797C1008.91 357.25 1009.8 355.898 1010.94 354.742C1012.08 353.586 1013.44 352.672 1015.02 352C1016.59 351.328 1018.33 350.992 1020.22 350.992C1022.11 350.992 1023.84 351.328 1025.42 352C1027.02 352.672 1028.38 353.586 1029.52 354.742C1030.66 355.898 1031.55 357.25 1032.17 358.797C1032.81 360.344 1033.13 362 1033.13 363.766C1033.13 365.531 1032.82 367.195 1032.2 368.758C1031.59 370.305 1030.71 371.664 1029.57 372.836C1028.45 373.992 1027.09 374.906 1025.49 375.578C1023.91 376.25 1022.16 376.586 1020.22 376.586C1018.27 376.586 1016.49 376.25 1014.9 375.578C1013.32 374.906 1011.97 373.992 1010.84 372.836C1009.72 371.68 1008.84 370.328 1008.22 368.781C1007.61 367.219 1007.3 365.547 1007.3 363.766ZM1014.31 363.766C1014.31 364.688 1014.47 365.539 1014.78 366.32C1015.09 367.086 1015.52 367.75 1016.05 368.312C1016.59 368.875 1017.22 369.312 1017.92 369.625C1018.64 369.938 1019.41 370.094 1020.22 370.094C1021.05 370.094 1021.81 369.945 1022.52 369.648C1023.23 369.336 1023.85 368.898 1024.37 368.336C1024.9 367.773 1025.31 367.109 1025.61 366.344C1025.91 365.562 1026.05 364.703 1026.05 363.766C1026.05 362.797 1025.91 361.922 1025.61 361.141C1025.31 360.359 1024.9 359.695 1024.37 359.148C1023.85 358.602 1023.23 358.188 1022.52 357.906C1021.81 357.609 1021.05 357.469 1020.22 357.484C1019.41 357.469 1018.64 357.609 1017.92 357.906C1017.22 358.188 1016.59 358.602 1016.05 359.148C1015.52 359.695 1015.09 360.359 1014.78 361.141C1014.47 361.922 1014.31 362.797 1014.31 363.766ZM1058.73 360.555H1052.14V358.047C1051.5 358.047 1050.91 358.094 1050.38 358.188C1049.85 358.266 1049.38 358.406 1048.98 358.609C1048.59 358.812 1048.25 359.094 1047.97 359.453C1047.7 359.812 1047.52 360.258 1047.41 360.789V369.578H1052.35V376H1036.51V369.578H1040.14V358.141H1036.55V351.719H1047.36V353.43C1048.05 352.883 1048.82 352.461 1049.68 352.164C1050.54 351.867 1051.48 351.719 1052.49 351.719C1053.52 351.719 1054.59 351.727 1055.68 351.742C1056.77 351.758 1057.79 351.766 1058.73 351.766V360.555ZM1062.22 339.531H1073.16V360.555H1077.27L1078.95 358.141V351.719H1091.52V358.141H1087.16L1082.63 363.367L1087.25 368.945H1091.28V376H1084.7L1076.82 365.594H1073.16V369.578H1075.65V376H1062.22V369.578H1065.97V345.953H1062.22V339.531ZM1112.19 359.148C1112.19 358.773 1112.06 358.414 1111.81 358.07C1111.58 357.727 1111.23 357.43 1110.76 357.18C1110.29 356.914 1109.71 356.703 1109.02 356.547C1108.35 356.391 1107.59 356.312 1106.73 356.312C1106.4 356.312 1106.05 356.344 1105.67 356.406C1105.3 356.453 1104.95 356.547 1104.62 356.688C1104.3 356.828 1104.04 357.023 1103.82 357.273C1103.62 357.508 1103.52 357.812 1103.52 358.188C1103.52 358.375 1103.54 358.555 1103.59 358.727C1103.65 358.898 1103.76 359.062 1103.91 359.219C1104.07 359.375 1104.28 359.523 1104.55 359.664C1104.83 359.789 1105.19 359.891 1105.62 359.969L1110.03 360.836C1111.62 361.148 1112.96 361.539 1114.04 362.008C1115.12 362.477 1115.98 363.023 1116.64 363.648C1117.3 364.273 1117.77 364.969 1118.05 365.734C1118.34 366.5 1118.49 367.328 1118.49 368.219C1118.49 369.609 1118.16 370.828 1117.51 371.875C1116.87 372.922 1116.02 373.797 1114.95 374.5C1113.91 375.188 1112.72 375.703 1111.39 376.047C1110.08 376.406 1108.75 376.586 1107.41 376.586C1106.53 376.586 1105.73 376.531 1105.02 376.422C1104.31 376.312 1103.67 376.164 1103.09 375.977C1102.53 375.789 1102.02 375.57 1101.57 375.32C1101.13 375.055 1100.73 374.766 1100.35 374.453H1096.11V367.938H1102.74V368.078C1102.76 368.531 1102.9 368.93 1103.16 369.273C1103.43 369.602 1103.77 369.883 1104.2 370.117C1104.63 370.352 1105.12 370.531 1105.67 370.656C1106.22 370.766 1106.8 370.82 1107.41 370.82C1108.81 370.82 1109.84 370.641 1110.48 370.281C1111.12 369.906 1111.44 369.43 1111.44 368.852C1111.44 368.398 1111.28 368.016 1110.97 367.703C1110.66 367.375 1110.1 367.117 1109.3 366.93L1104.8 365.969C1101.98 365.422 1099.84 364.516 1098.41 363.25C1096.97 361.969 1096.25 360.328 1096.25 358.328C1096.25 357.156 1096.52 356.094 1097.07 355.141C1097.62 354.172 1098.36 353.352 1099.3 352.68C1100.23 351.992 1101.33 351.461 1102.58 351.086C1103.84 350.711 1105.2 350.523 1106.63 350.523C1107.62 350.523 1108.49 350.586 1109.26 350.711C1110.02 350.82 1110.71 350.969 1111.32 351.156C1111.93 351.344 1112.46 351.57 1112.91 351.836C1113.38 352.086 1113.8 352.352 1114.16 352.633H1118.23V359.148H1112.19Z" fill="#F3F4F6"/>
<path d="M974.188 276.477C974.109 275.93 973.914 275.414 973.602 274.93C973.305 274.445 972.914 274.031 972.43 273.688C971.961 273.328 971.422 273.047 970.812 272.844C970.219 272.641 969.594 272.539 968.938 272.539C968.344 272.539 967.789 272.602 967.273 272.727C966.758 272.852 966.305 273.047 965.914 273.312C965.539 273.562 965.234 273.891 965 274.297C964.781 274.703 964.672 275.188 964.672 275.75C964.672 276.453 964.82 277.016 965.117 277.438C965.43 277.844 965.82 278.18 966.289 278.445C966.773 278.711 967.305 278.922 967.883 279.078C968.461 279.234 969.023 279.406 969.57 279.594L976.016 281.75C976.906 282.062 977.742 282.492 978.523 283.039C979.305 283.586 979.977 284.25 980.539 285.031C981.117 285.812 981.57 286.711 981.898 287.727C982.227 288.742 982.391 289.883 982.391 291.148C982.391 292.867 982.07 294.438 981.43 295.859C980.805 297.281 979.922 298.5 978.781 299.516C977.641 300.531 976.273 301.32 974.68 301.883C973.086 302.445 971.32 302.727 969.383 302.727C968.023 302.727 966.734 302.57 965.516 302.258C964.312 301.961 963.211 301.523 962.211 300.945C961.211 300.367 960.336 299.68 959.586 298.883C958.836 298.07 958.25 297.156 957.828 296.141H955.414V289.086H963.898V290.539C963.898 291.242 964.008 291.891 964.227 292.484C964.461 293.078 964.805 293.594 965.258 294.031C965.711 294.469 966.281 294.812 966.969 295.062C967.656 295.297 968.461 295.414 969.383 295.414C970.789 295.414 971.859 295.094 972.594 294.453C973.328 293.797 973.695 292.891 973.695 291.734C973.695 291.141 973.562 290.648 973.297 290.258C973.047 289.852 972.719 289.516 972.312 289.25C971.906 288.969 971.453 288.734 970.953 288.547C970.453 288.359 969.961 288.188 969.477 288.031L964.109 286.297C963.094 285.984 962.109 285.547 961.156 284.984C960.219 284.422 959.383 283.719 958.648 282.875C957.93 282.031 957.352 281.047 956.914 279.922C956.492 278.781 956.281 277.484 956.281 276.031C956.281 274.344 956.594 272.844 957.219 271.531C957.844 270.203 958.719 269.086 959.844 268.18C960.969 267.273 962.305 266.586 963.852 266.117C965.398 265.648 967.094 265.414 968.938 265.414C970.391 265.414 971.734 265.586 972.969 265.93C974.203 266.258 975.305 266.703 976.273 267.266C977.258 267.828 978.086 268.477 978.758 269.211C979.445 269.93 979.969 270.68 980.328 271.461H982.672V278.539H974.188V276.477ZM985.039 265.531H995.984V286.555H1000.09L1001.77 284.141V277.719H1014.34V284.141H1009.98L1005.45 289.367L1010.07 294.945H1014.1V302H1007.52L999.641 291.594H995.984V295.578H998.469V302H985.039V295.578H988.789V271.953H985.039V265.531ZM1019.52 277.719H1030.41V295.578H1033.79V302H1019.52V295.578H1023.17V284.141H1019.52V277.719ZM1022.8 269.891C1022.8 269.312 1022.9 268.773 1023.1 268.273C1023.32 267.758 1023.62 267.312 1023.99 266.938C1024.37 266.562 1024.8 266.266 1025.3 266.047C1025.82 265.828 1026.38 265.719 1026.97 265.719C1027.53 265.719 1028.06 265.828 1028.56 266.047C1029.06 266.266 1029.5 266.562 1029.88 266.938C1030.25 267.312 1030.55 267.758 1030.77 268.273C1030.98 268.773 1031.09 269.312 1031.09 269.891C1031.09 270.469 1030.98 271.016 1030.77 271.531C1030.55 272.031 1030.25 272.469 1029.88 272.844C1029.5 273.219 1029.06 273.516 1028.56 273.734C1028.06 273.953 1027.53 274.062 1026.97 274.062C1026.38 274.062 1025.82 273.953 1025.3 273.734C1024.8 273.516 1024.37 273.219 1023.99 272.844C1023.62 272.469 1023.32 272.031 1023.1 271.531C1022.9 271.016 1022.8 270.469 1022.8 269.891ZM1037.54 265.531H1048.48V295.578H1052.23V302H1037.54V295.578H1041.29V271.953H1037.54V265.531ZM1055.82 265.531H1066.77V295.578H1070.52V302H1055.82V295.578H1059.57V271.953H1055.82V265.531ZM1090.09 285.148C1090.09 284.773 1089.96 284.414 1089.71 284.07C1089.48 283.727 1089.12 283.43 1088.66 283.18C1088.19 282.914 1087.61 282.703 1086.92 282.547C1086.25 282.391 1085.48 282.312 1084.62 282.312C1084.3 282.312 1083.95 282.344 1083.57 282.406C1083.2 282.453 1082.84 282.547 1082.52 282.688C1082.2 282.828 1081.94 283.023 1081.72 283.273C1081.52 283.508 1081.41 283.812 1081.41 284.188C1081.41 284.375 1081.44 284.555 1081.48 284.727C1081.55 284.898 1081.66 285.062 1081.81 285.219C1081.97 285.375 1082.18 285.523 1082.45 285.664C1082.73 285.789 1083.09 285.891 1083.52 285.969L1087.93 286.836C1089.52 287.148 1090.86 287.539 1091.94 288.008C1093.02 288.477 1093.88 289.023 1094.54 289.648C1095.2 290.273 1095.66 290.969 1095.95 291.734C1096.24 292.5 1096.39 293.328 1096.39 294.219C1096.39 295.609 1096.06 296.828 1095.41 297.875C1094.77 298.922 1093.91 299.797 1092.85 300.5C1091.8 301.188 1090.62 301.703 1089.29 302.047C1087.98 302.406 1086.65 302.586 1085.3 302.586C1084.43 302.586 1083.63 302.531 1082.91 302.422C1082.21 302.312 1081.57 302.164 1080.99 301.977C1080.43 301.789 1079.92 301.57 1079.47 301.32C1079.03 301.055 1078.62 300.766 1078.25 300.453H1074.01V293.938H1080.64V294.078C1080.66 294.531 1080.8 294.93 1081.06 295.273C1081.33 295.602 1081.67 295.883 1082.09 296.117C1082.53 296.352 1083.02 296.531 1083.57 296.656C1084.12 296.766 1084.7 296.82 1085.3 296.82C1086.71 296.82 1087.73 296.641 1088.38 296.281C1089.02 295.906 1089.34 295.43 1089.34 294.852C1089.34 294.398 1089.18 294.016 1088.87 293.703C1088.55 293.375 1088 293.117 1087.2 292.93L1082.7 291.969C1079.88 291.422 1077.74 290.516 1076.3 289.25C1074.87 287.969 1074.15 286.328 1074.15 284.328C1074.15 283.156 1074.42 282.094 1074.97 281.141C1075.52 280.172 1076.26 279.352 1077.2 278.68C1078.13 277.992 1079.23 277.461 1080.48 277.086C1081.74 276.711 1083.09 276.523 1084.53 276.523C1085.52 276.523 1086.39 276.586 1087.16 276.711C1087.92 276.82 1088.61 276.969 1089.22 277.156C1089.83 277.344 1090.36 277.57 1090.81 277.836C1091.28 278.086 1091.7 278.352 1092.05 278.633H1096.13V285.148H1090.09Z" fill="#1F2937"/>
<path d="M975.141 221.578H978.68L977.086 216.469H966.164L964.57 221.578H968.32V228H954.844V221.578H957.492L967.172 192.469H976.57L986.039 221.578H988.617V228H975.141V221.578ZM968.016 210.469H975.188L971.578 198.914L968.016 210.469ZM989.859 191.531H1000.45V204.258C1001.3 203.852 1002.16 203.539 1003.05 203.32C1003.95 203.102 1004.86 202.992 1005.8 202.992C1007.59 202.992 1009.26 203.328 1010.79 204C1012.32 204.672 1013.64 205.586 1014.75 206.742C1015.86 207.898 1016.73 209.25 1017.35 210.797C1017.99 212.344 1018.31 213.984 1018.31 215.719C1018.31 217.469 1018 219.117 1017.38 220.664C1016.77 222.211 1015.91 223.562 1014.8 224.719C1013.69 225.859 1012.37 226.766 1010.84 227.438C1009.3 228.094 1007.62 228.422 1005.8 228.422C1004.81 228.422 1003.88 228.328 1002.98 228.141C1002.09 227.953 1001.25 227.688 1000.45 227.344V228H993.258V197.953H989.859V191.531ZM1005.3 209.461C1004.27 209.461 1003.34 209.695 1002.52 210.164C1001.7 210.633 1001.02 211.305 1000.45 212.18V219.445C1000.95 220.195 1001.62 220.805 1002.45 221.273C1003.29 221.727 1004.23 221.953 1005.26 221.953C1006.05 221.953 1006.81 221.812 1007.53 221.531C1008.25 221.234 1008.88 220.82 1009.41 220.289C1009.95 219.742 1010.38 219.094 1010.7 218.344C1011.01 217.578 1011.16 216.719 1011.16 215.766C1011.16 214.797 1011.01 213.922 1010.7 213.141C1010.38 212.359 1009.96 211.695 1009.43 211.148C1008.9 210.602 1008.27 210.188 1007.55 209.906C1006.85 209.609 1006.1 209.461 1005.3 209.461ZM1021.48 215.766C1021.48 214 1021.8 212.344 1022.44 210.797C1023.08 209.25 1023.97 207.898 1025.11 206.742C1026.25 205.586 1027.61 204.672 1029.19 204C1030.77 203.328 1032.5 202.992 1034.39 202.992C1036.28 202.992 1038.02 203.328 1039.59 204C1041.19 204.672 1042.55 205.586 1043.7 206.742C1044.84 207.898 1045.72 209.25 1046.34 210.797C1046.98 212.344 1047.3 214 1047.3 215.766C1047.3 217.531 1046.99 219.195 1046.37 220.758C1045.76 222.305 1044.88 223.664 1043.74 224.836C1042.62 225.992 1041.26 226.906 1039.66 227.578C1038.09 228.25 1036.33 228.586 1034.39 228.586C1032.44 228.586 1030.66 228.25 1029.07 227.578C1027.49 226.906 1026.14 225.992 1025.02 224.836C1023.89 223.68 1023.02 222.328 1022.39 220.781C1021.78 219.219 1021.48 217.547 1021.48 215.766ZM1028.48 215.766C1028.48 216.688 1028.64 217.539 1028.95 218.32C1029.27 219.086 1029.69 219.75 1030.22 220.312C1030.77 220.875 1031.39 221.312 1032.09 221.625C1032.81 221.938 1033.58 222.094 1034.39 222.094C1035.22 222.094 1035.98 221.945 1036.69 221.648C1037.41 221.336 1038.02 220.898 1038.54 220.336C1039.07 219.773 1039.48 219.109 1039.78 218.344C1040.08 217.562 1040.23 216.703 1040.23 215.766C1040.23 214.797 1040.08 213.922 1039.78 213.141C1039.48 212.359 1039.07 211.695 1038.54 211.148C1038.02 210.602 1037.41 210.188 1036.69 209.906C1035.98 209.609 1035.22 209.469 1034.39 209.484C1033.58 209.469 1032.81 209.609 1032.09 209.906C1031.39 210.188 1030.77 210.602 1030.22 211.148C1029.69 211.695 1029.27 212.359 1028.95 213.141C1028.64 213.922 1028.48 214.797 1028.48 215.766ZM1065.94 203.719H1077.42V221.578H1080.35V228H1070.06V225.938C1069.23 226.688 1068.27 227.266 1067.16 227.672C1066.05 228.078 1064.77 228.281 1063.31 228.281C1061.97 228.281 1060.7 228.07 1059.52 227.648C1058.33 227.227 1057.29 226.594 1056.4 225.75C1055.52 224.891 1054.83 223.82 1054.31 222.539C1053.81 221.258 1053.56 219.75 1053.56 218.016V210.141H1050.4V203.719H1061.13V218.016C1061.13 219.641 1061.55 220.859 1062.38 221.672C1063.2 222.469 1064.28 222.867 1065.61 222.867C1066.55 222.867 1067.4 222.578 1068.16 222C1068.93 221.422 1069.48 220.641 1069.83 219.656V210.141H1065.94V203.719ZM1093.08 203.719H1097.93V209.859H1093.03L1092.98 220.125C1092.98 220.719 1093.03 221.203 1093.12 221.578C1093.22 221.938 1093.35 222.227 1093.52 222.445C1093.71 222.664 1093.93 222.812 1094.18 222.891C1094.43 222.969 1094.72 223.008 1095.05 223.008C1095.64 223.008 1096.16 222.953 1096.62 222.844C1097.07 222.719 1097.52 222.578 1097.98 222.422L1098.98 226.945C1098.19 227.445 1097.3 227.844 1096.31 228.141C1095.34 228.438 1094.19 228.586 1092.84 228.586C1091.89 228.586 1090.98 228.422 1090.1 228.094C1089.24 227.766 1088.48 227.273 1087.83 226.617C1087.17 225.945 1086.65 225.109 1086.26 224.109C1085.87 223.109 1085.68 221.945 1085.7 220.617L1085.77 209.859H1082.27V203.719H1085.79L1085.84 197.906L1093.12 194.438L1093.08 203.719Z" fill="#1F2937"/>
<path d="M977.523 118.469H992.758V124.914H989.008V147.578H992.758V154H977.523V147.578H981.227V138.484H965.195V147.578H968.945V154H953.734V147.578H957.414V124.914H953.734V118.469H968.945V124.914H965.195V132.297H981.227V124.914H977.523V118.469ZM997.07 141.766C997.07 140 997.391 138.344 998.031 136.797C998.672 135.25 999.562 133.898 1000.7 132.742C1001.84 131.586 1003.2 130.672 1004.78 130C1006.36 129.328 1008.09 128.992 1009.98 128.992C1011.88 128.992 1013.61 129.328 1015.19 130C1016.78 130.672 1018.15 131.586 1019.29 132.742C1020.43 133.898 1021.31 135.25 1021.94 136.797C1022.58 138.344 1022.9 140 1022.9 141.766C1022.9 143.531 1022.59 145.195 1021.96 146.758C1021.35 148.305 1020.48 149.664 1019.34 150.836C1018.21 151.992 1016.85 152.906 1015.26 153.578C1013.68 154.25 1011.92 154.586 1009.98 154.586C1008.03 154.586 1006.26 154.25 1004.66 153.578C1003.09 152.906 1001.73 151.992 1000.61 150.836C999.484 149.68 998.609 148.328 997.984 146.781C997.375 145.219 997.07 143.547 997.07 141.766ZM1004.08 141.766C1004.08 142.688 1004.23 143.539 1004.55 144.32C1004.86 145.086 1005.28 145.75 1005.81 146.312C1006.36 146.875 1006.98 147.312 1007.69 147.625C1008.41 147.938 1009.17 148.094 1009.98 148.094C1010.81 148.094 1011.58 147.945 1012.28 147.648C1013 147.336 1013.62 146.898 1014.13 146.336C1014.66 145.773 1015.08 145.109 1015.38 144.344C1015.67 143.562 1015.82 142.703 1015.82 141.766C1015.82 140.797 1015.67 139.922 1015.38 139.141C1015.08 138.359 1014.66 137.695 1014.13 137.148C1013.62 136.602 1013 136.188 1012.28 135.906C1011.58 135.609 1010.81 135.469 1009.98 135.484C1009.17 135.469 1008.41 135.609 1007.69 135.906C1006.98 136.188 1006.36 136.602 1005.81 137.148C1005.28 137.695 1004.86 138.359 1004.55 139.141C1004.23 139.922 1004.08 140.797 1004.08 141.766ZM1026.51 129.719H1037.62V131.828C1038.62 131.031 1039.74 130.398 1040.99 129.93C1042.24 129.461 1043.53 129.227 1044.86 129.227C1046.7 129.227 1048.28 129.555 1049.59 130.211C1050.92 130.852 1051.96 131.836 1052.71 133.164C1053.23 132.586 1053.8 132.062 1054.45 131.594C1055.1 131.109 1055.8 130.695 1056.53 130.352C1057.27 129.992 1058.03 129.719 1058.83 129.531C1059.64 129.328 1060.47 129.227 1061.31 129.227C1064.28 129.227 1066.56 130.047 1068.16 131.688C1069.75 133.328 1070.55 135.727 1070.55 138.883V147.578H1073.99V154H1062.91V140.078C1062.91 138.703 1062.55 137.625 1061.83 136.844C1061.12 136.062 1060.14 135.672 1058.88 135.672C1058 135.672 1057.17 135.883 1056.39 136.305C1055.62 136.711 1054.86 137.422 1054.09 138.438C1054.11 138.609 1054.12 138.789 1054.12 138.977C1054.12 139.148 1054.12 139.328 1054.12 139.516V147.578H1057.63V154H1046.55V140.031C1046.55 139.375 1046.45 138.781 1046.24 138.25C1046.04 137.719 1045.76 137.266 1045.4 136.891C1045.04 136.516 1044.61 136.227 1044.11 136.023C1043.62 135.805 1043.09 135.688 1042.49 135.672C1041.71 135.656 1040.9 135.828 1040.05 136.188C1039.23 136.547 1038.43 137.211 1037.66 138.18V147.578H1041.55V154H1026.46V147.578H1030.07V136.141H1026.51V129.719ZM1083.3 143.383L1083.37 144.109C1083.54 144.812 1083.83 145.43 1084.23 145.961C1084.66 146.492 1085.15 146.938 1085.71 147.297C1086.27 147.656 1086.9 147.93 1087.59 148.117C1088.27 148.289 1088.97 148.375 1089.67 148.375C1090.38 148.375 1091.04 148.336 1091.66 148.258C1092.3 148.164 1092.92 148.047 1093.52 147.906C1094.11 147.75 1094.69 147.578 1095.25 147.391C1095.81 147.188 1096.38 146.977 1096.96 146.758L1099.54 151.562C1098.65 152.109 1097.83 152.578 1097.08 152.969C1096.34 153.344 1095.6 153.656 1094.85 153.906C1094.1 154.156 1093.3 154.336 1092.46 154.445C1091.62 154.57 1090.63 154.633 1089.51 154.633C1087.4 154.633 1085.52 154.289 1083.88 153.602C1082.24 152.898 1080.86 151.953 1079.73 150.766C1078.62 149.578 1077.77 148.188 1077.18 146.594C1076.6 145 1076.31 143.312 1076.31 141.531C1076.31 139.75 1076.62 138.078 1077.23 136.516C1077.85 134.953 1078.73 133.594 1079.85 132.438C1080.98 131.266 1082.32 130.344 1083.88 129.672C1085.45 129 1087.18 128.664 1089.09 128.664C1090.99 128.664 1092.68 128.984 1094.15 129.625C1095.63 130.25 1096.88 131.125 1097.9 132.25C1098.91 133.359 1099.7 134.672 1100.24 136.188C1100.79 137.688 1101.09 139.305 1101.13 141.039C1101.18 141.43 1101.2 141.82 1101.2 142.211C1101.22 142.586 1101.21 142.977 1101.18 143.383H1083.3ZM1088.9 134.523C1088.02 134.523 1087.27 134.633 1086.65 134.852C1086.04 135.055 1085.52 135.344 1085.1 135.719C1084.68 136.078 1084.34 136.492 1084.09 136.961C1083.84 137.43 1083.65 137.922 1083.51 138.438H1093.66C1093.55 137.906 1093.39 137.406 1093.19 136.938C1092.98 136.469 1092.7 136.055 1092.34 135.695C1091.98 135.336 1091.52 135.055 1090.96 134.852C1090.41 134.633 1089.73 134.523 1088.9 134.523Z" fill="#1F2937"/>
</svg>
