<svg width="1349" height="643" viewBox="0 0 1349 643" fill="none" xmlns="http://www.w3.org/2000/svg">
<g clip-path="url(#clip0_15_415)">
<rect width="1349" height="643" fill="#F3F4F6"/>
<rect width="30" height="643" fill="#5EEAD4"/>
<rect width="16.0866" height="4.28975" rx="2.14487" transform="matrix(0.659589 0.751626 -0.659589 0.751626 10.8295 309)" fill="#1F2937"/>
<rect width="16.0866" height="4.28975" rx="2.14487" transform="matrix(0.659589 -0.751626 0.659589 0.751626 8 330.211)" fill="#1F2937"/>
<path d="M70.576 46.9879V44.4468L74.3879 29.1996L89.635 16.4938L103.612 15.2231L118.859 21.5761L122.67 27.9291L112.506 22.8467H103.612L89.635 31.7408L85.8233 40.635V46.9879H70.576Z" fill="#5EEAD4"/>
<path d="M95.988 66.0468H102.341L108.694 72.3998V81.294L112.506 86.3763L116.266 93.9998H117.409H136.647V53.3913L108.694 53.3409H95.988V66.0468Z" fill="#EF4444"/>
<path d="M136.647 54.6116H123.941V94H136.647V54.6116Z" fill="#F87171"/>
<path d="M87.0939 45.7174H70.576V91.4587H87.0939V73.6703L89.635 69.8586L95.988 67.3174V60.9645L98.5291 57.1526H106.153L117.588 45.7174H87.0939Z" fill="#EF4444"/>
<path d="M75.6583 83.8351H70.576V92.7292H75.6583V83.8351Z" fill="#FECACA"/>
<path d="M84.5527 53.3409V62.2351L87.7291 63.5057L90.9056 60.9645V53.3409H84.5527Z" fill="#F39200"/>
<path d="M107.423 57.2003H95.988V59.6466H107.423V57.2003Z" fill="#1F2937"/>
<path d="M111.235 53.3884H99.7997V55.8347H111.235V53.3884Z" fill="#1F2937"/>
<path d="M115.047 49.5765H103.612V52.0229H115.047V49.5765Z" fill="#1F2937"/>
<path d="M90.9055 53.3409V60.3292C90.9055 62.0836 89.4834 63.5057 87.7291 63.5057C85.9747 63.5057 84.5526 62.0836 84.5526 60.3292V53.3409" fill="#FECACA"/>
<path d="M87.7291 64.7289C85.3032 64.7289 83.3295 62.7551 83.3295 60.3291V53.3408H85.7758V60.3291C85.7758 61.4062 86.6521 62.2826 87.7291 62.2826C88.8061 62.2826 89.6824 61.4063 89.6824 60.3291V53.3408H92.1287V60.3291C92.1287 62.7551 90.155 64.7289 87.7291 64.7289Z" fill="#1F2937"/>
<path d="M79.4702 61.012H75.6585V63.4583H79.4702V61.012Z" fill="white"/>
<path d="M69.3529 93.9524H88.3169V77.4822C88.3169 73.2523 91.758 69.8112 95.9879 69.8112H97.211V60.9645H94.7647V67.4384C89.7609 68.0443 85.8706 72.3175 85.8706 77.4822V91.5061H76.8817V83.8825H73.1173V86.3288H74.4354V91.5061H71.7992V60.917H80.7408V58.4707H71.7992V48.2112H118.859V45.7649H69.3529V93.9524Z" fill="#1F2937"/>
<path d="M130.247 44.4467C130.247 44.25 130.244 44.0538 130.239 43.8584C129.924 27.3407 116.391 14 99.7997 14C83.0113 14 69.3529 27.6584 69.3529 44.4467H71.7992C71.7992 44.0049 71.8108 43.5657 71.8312 43.1287H80.7408V40.6824H72.0531C72.1151 40.2237 72.188 39.7685 72.2718 39.3169H78.1996V36.8706H72.8413C72.9708 36.4107 73.1111 35.9553 73.2633 35.5052H75.6585V33.0589H74.2219C78.5933 23.2789 88.4131 16.4463 99.7997 16.4463C108.18 16.4463 115.711 20.1477 120.847 26.0005C117.077 23.2497 112.437 21.6235 107.423 21.6235C94.8384 21.6235 84.6001 31.8618 84.6001 44.4467H87.0464C87.0464 33.2107 96.1875 24.0698 107.423 24.0698C118.484 24.0698 127.514 32.9275 127.794 43.9215C127.797 44.0963 127.8 44.2712 127.8 44.4468L130.247 44.4467Z" fill="#1F2937"/>
<path d="M136.647 53.3884H113.776V55.8347H136.647V53.3884Z" fill="#1F2937"/>
<path d="M109.917 82.5647H107.471V74.941C107.471 70.7113 104.03 67.2702 99.7997 67.2702V64.8239C105.378 64.8239 109.917 69.3624 109.917 74.941V82.5647Z" fill="#1F2937"/>
<path d="M113.729 80.0234H111.283V86.3763H113.729V80.0234Z" fill="#1F2937"/>
<path d="M117.541 85.1057H115.094V93.9999H117.541V85.1057Z" fill="#1F2937"/>
<path d="M219.602 125.715C219.484 124.895 219.191 124.121 218.723 123.395C218.277 122.668 217.691 122.047 216.965 121.531C216.262 120.992 215.453 120.57 214.539 120.266C213.648 119.961 212.711 119.809 211.727 119.809C210.836 119.809 210.004 119.902 209.23 120.09C208.457 120.277 207.777 120.57 207.191 120.969C206.629 121.344 206.172 121.836 205.82 122.445C205.492 123.055 205.328 123.781 205.328 124.625C205.328 125.68 205.551 126.523 205.996 127.156C206.465 127.766 207.051 128.27 207.754 128.668C208.48 129.066 209.277 129.383 210.145 129.617C211.012 129.852 211.855 130.109 212.676 130.391L222.344 133.625C223.68 134.094 224.934 134.738 226.105 135.559C227.277 136.379 228.285 137.375 229.129 138.547C229.996 139.719 230.676 141.066 231.168 142.59C231.66 144.113 231.906 145.824 231.906 147.723C231.906 150.301 231.426 152.656 230.465 154.789C229.527 156.922 228.203 158.75 226.492 160.273C224.781 161.797 222.73 162.98 220.34 163.824C217.949 164.668 215.301 165.09 212.395 165.09C210.355 165.09 208.422 164.855 206.594 164.387C204.789 163.941 203.137 163.285 201.637 162.418C200.137 161.551 198.824 160.52 197.699 159.324C196.574 158.105 195.695 156.734 195.062 155.211H191.441V144.629H204.168V146.809C204.168 147.863 204.332 148.836 204.66 149.727C205.012 150.617 205.527 151.391 206.207 152.047C206.887 152.703 207.742 153.219 208.773 153.594C209.805 153.945 211.012 154.121 212.395 154.121C214.504 154.121 216.109 153.641 217.211 152.68C218.312 151.695 218.863 150.336 218.863 148.602C218.863 147.711 218.664 146.973 218.266 146.387C217.891 145.777 217.398 145.273 216.789 144.875C216.18 144.453 215.5 144.102 214.75 143.82C214 143.539 213.262 143.281 212.535 143.047L204.484 140.445C202.961 139.977 201.484 139.32 200.055 138.477C198.648 137.633 197.395 136.578 196.293 135.312C195.215 134.047 194.348 132.57 193.691 130.883C193.059 129.172 192.742 127.227 192.742 125.047C192.742 122.516 193.211 120.266 194.148 118.297C195.086 116.305 196.398 114.629 198.086 113.27C199.773 111.91 201.777 110.879 204.098 110.176C206.418 109.473 208.961 109.121 211.727 109.121C213.906 109.121 215.922 109.379 217.773 109.895C219.625 110.387 221.277 111.055 222.73 111.898C224.207 112.742 225.449 113.715 226.457 114.816C227.488 115.895 228.273 117.02 228.812 118.191H232.328V128.809H219.602V125.715ZM235.879 109.297H252.297V140.832H258.449L260.98 137.211V127.578H279.824V137.211H273.285L266.5 145.051L273.426 153.418H279.473V164H269.594L257.781 148.391H252.297V154.367H256.023V164H235.879V154.367H241.504V118.93H235.879V109.297ZM287.594 127.578H303.941V154.367H309.004V164H287.594V154.367H293.078V137.211H287.594V127.578ZM292.516 115.836C292.516 114.969 292.668 114.16 292.973 113.41C293.301 112.637 293.746 111.969 294.309 111.406C294.871 110.844 295.527 110.398 296.277 110.07C297.051 109.742 297.883 109.578 298.773 109.578C299.617 109.578 300.414 109.742 301.164 110.07C301.914 110.398 302.57 110.844 303.133 111.406C303.695 111.969 304.141 112.637 304.469 113.41C304.797 114.16 304.961 114.969 304.961 115.836C304.961 116.703 304.797 117.523 304.469 118.297C304.141 119.047 303.695 119.703 303.133 120.266C302.57 120.828 301.914 121.273 301.164 121.602C300.414 121.93 299.617 122.094 298.773 122.094C297.883 122.094 297.051 121.93 296.277 121.602C295.527 121.273 294.871 120.828 294.309 120.266C293.746 119.703 293.301 119.047 292.973 118.297C292.668 117.523 292.516 116.703 292.516 115.836ZM314.629 109.297H331.047V154.367H336.672V164H314.629V154.367H320.254V118.93H314.629V109.297ZM342.051 109.297H358.469V154.367H364.094V164H342.051V154.367H347.676V118.93H342.051V109.297ZM393.449 138.723C393.449 138.16 393.262 137.621 392.887 137.105C392.535 136.59 392.008 136.145 391.305 135.77C390.602 135.371 389.734 135.055 388.703 134.82C387.695 134.586 386.547 134.469 385.258 134.469C384.766 134.469 384.238 134.516 383.676 134.609C383.113 134.68 382.586 134.82 382.094 135.031C381.625 135.242 381.227 135.535 380.898 135.91C380.594 136.262 380.441 136.719 380.441 137.281C380.441 137.562 380.477 137.832 380.547 138.09C380.641 138.348 380.805 138.594 381.039 138.828C381.273 139.062 381.59 139.285 381.988 139.496C382.41 139.684 382.949 139.836 383.605 139.953L390.215 141.254C392.605 141.723 394.609 142.309 396.227 143.012C397.844 143.715 399.145 144.535 400.129 145.473C401.113 146.41 401.816 147.453 402.238 148.602C402.684 149.75 402.906 150.992 402.906 152.328C402.906 154.414 402.414 156.242 401.43 157.812C400.469 159.383 399.191 160.695 397.598 161.75C396.027 162.781 394.246 163.555 392.254 164.07C390.285 164.609 388.293 164.879 386.277 164.879C384.965 164.879 383.77 164.797 382.691 164.633C381.637 164.469 380.676 164.246 379.809 163.965C378.965 163.684 378.203 163.355 377.523 162.98C376.867 162.582 376.258 162.148 375.695 161.68H369.332V151.906H379.281V152.117C379.305 152.797 379.516 153.395 379.914 153.91C380.312 154.402 380.828 154.824 381.461 155.176C382.117 155.527 382.855 155.797 383.676 155.984C384.496 156.148 385.363 156.23 386.277 156.23C388.387 156.23 389.922 155.961 390.883 155.422C391.844 154.859 392.324 154.145 392.324 153.277C392.324 152.598 392.09 152.023 391.621 151.555C391.152 151.062 390.32 150.676 389.125 150.395L382.375 148.953C378.133 148.133 374.934 146.773 372.777 144.875C370.621 142.953 369.543 140.492 369.543 137.492C369.543 135.734 369.953 134.141 370.773 132.711C371.594 131.258 372.707 130.027 374.113 129.02C375.52 127.988 377.16 127.191 379.035 126.629C380.934 126.066 382.961 125.785 385.117 125.785C386.594 125.785 387.906 125.879 389.055 126.066C390.203 126.23 391.234 126.453 392.148 126.734C393.062 127.016 393.859 127.355 394.539 127.754C395.242 128.129 395.863 128.527 396.402 128.949H402.52V138.723H393.449Z" fill="#1F2937"/>
<g filter="url(#filter0_d_15_415)">
<path d="M216 232H466V292H216V232Z" fill="#C4C4C4"/>
<path d="M996 232H1246V292H996V232Z" fill="#C4C4C4"/>
<path d="M736 232H986V292H736V232Z" fill="#C4C4C4"/>
<path d="M476 232H726V292H476V232Z" fill="#C4C4C4"/>
</g>
<g filter="url(#filter1_d_15_415)">
<path d="M216 517H466V577H216V517Z" fill="#C4C4C4"/>
<path d="M996 517H1246V577H996V517Z" fill="#C4C4C4"/>
<path d="M736 517H986V577H736V517Z" fill="#C4C4C4"/>
<path d="M476 517H726V577H476V517Z" fill="#C4C4C4"/>
</g>
<g filter="url(#filter2_d_15_415)">
<path d="M216 612H466V672H216V612Z" fill="#C4C4C4"/>
<path d="M996 612H1246V672H996V612Z" fill="#C4C4C4"/>
<path d="M736 612H986V672H736V612Z" fill="#C4C4C4"/>
<path d="M476 612H726V672H476V612Z" fill="#C4C4C4"/>
</g>
<g filter="url(#filter3_d_15_415)">
<path d="M216 422H466V482H216V422Z" fill="#C4C4C4"/>
<path d="M996 422H1246V482H996V422Z" fill="#C4C4C4"/>
<path d="M736 422H986V482H736V422Z" fill="#C4C4C4"/>
<path d="M476 422H726V482H476V422Z" fill="#C4C4C4"/>
</g>
<g filter="url(#filter4_d_15_415)">
<path d="M216 327H466V387H216V327Z" fill="#C4C4C4"/>
<path d="M996 327H1246V387H996V327Z" fill="#C4C4C4"/>
<path d="M736 327H986V387H736V327Z" fill="#C4C4C4"/>
<path d="M476 327H726V387H476V327Z" fill="#C4C4C4"/>
</g>
</g>
<defs>
<filter id="filter0_d_15_415" x="212" y="232" width="1038" height="68" filterUnits="userSpaceOnUse" color-interpolation-filters="sRGB">
<feFlood flood-opacity="0" result="BackgroundImageFix"/>
<feColorMatrix in="SourceAlpha" type="matrix" values="0 0 0 0 0 0 0 0 0 0 0 0 0 0 0 0 0 0 127 0" result="hardAlpha"/>
<feOffset dy="4"/>
<feGaussianBlur stdDeviation="2"/>
<feComposite in2="hardAlpha" operator="out"/>
<feColorMatrix type="matrix" values="0 0 0 0 0 0 0 0 0 0 0 0 0 0 0 0 0 0 0.25 0"/>
<feBlend mode="normal" in2="BackgroundImageFix" result="effect1_dropShadow_15_415"/>
<feBlend mode="normal" in="SourceGraphic" in2="effect1_dropShadow_15_415" result="shape"/>
</filter>
<filter id="filter1_d_15_415" x="212" y="517" width="1038" height="68" filterUnits="userSpaceOnUse" color-interpolation-filters="sRGB">
<feFlood flood-opacity="0" result="BackgroundImageFix"/>
<feColorMatrix in="SourceAlpha" type="matrix" values="0 0 0 0 0 0 0 0 0 0 0 0 0 0 0 0 0 0 127 0" result="hardAlpha"/>
<feOffset dy="4"/>
<feGaussianBlur stdDeviation="2"/>
<feComposite in2="hardAlpha" operator="out"/>
<feColorMatrix type="matrix" values="0 0 0 0 0 0 0 0 0 0 0 0 0 0 0 0 0 0 0.25 0"/>
<feBlend mode="normal" in2="BackgroundImageFix" result="effect1_dropShadow_15_415"/>
<feBlend mode="normal" in="SourceGraphic" in2="effect1_dropShadow_15_415" result="shape"/>
</filter>
<filter id="filter2_d_15_415" x="212" y="612" width="1038" height="68" filterUnits="userSpaceOnUse" color-interpolation-filters="sRGB">
<feFlood flood-opacity="0" result="BackgroundImageFix"/>
<feColorMatrix in="SourceAlpha" type="matrix" values="0 0 0 0 0 0 0 0 0 0 0 0 0 0 0 0 0 0 127 0" result="hardAlpha"/>
<feOffset dy="4"/>
<feGaussianBlur stdDeviation="2"/>
<feComposite in2="hardAlpha" operator="out"/>
<feColorMatrix type="matrix" values="0 0 0 0 0 0 0 0 0 0 0 0 0 0 0 0 0 0 0.25 0"/>
<feBlend mode="normal" in2="BackgroundImageFix" result="effect1_dropShadow_15_415"/>
<feBlend mode="normal" in="SourceGraphic" in2="effect1_dropShadow_15_415" result="shape"/>
</filter>
<filter id="filter3_d_15_415" x="212" y="422" width="1038" height="68" filterUnits="userSpaceOnUse" color-interpolation-filters="sRGB">
<feFlood flood-opacity="0" result="BackgroundImageFix"/>
<feColorMatrix in="SourceAlpha" type="matrix" values="0 0 0 0 0 0 0 0 0 0 0 0 0 0 0 0 0 0 127 0" result="hardAlpha"/>
<feOffset dy="4"/>
<feGaussianBlur stdDeviation="2"/>
<feComposite in2="hardAlpha" operator="out"/>
<feColorMatrix type="matrix" values="0 0 0 0 0 0 0 0 0 0 0 0 0 0 0 0 0 0 0.25 0"/>
<feBlend mode="normal" in2="BackgroundImageFix" result="effect1_dropShadow_15_415"/>
<feBlend mode="normal" in="SourceGraphic" in2="effect1_dropShadow_15_415" result="shape"/>
</filter>
<filter id="filter4_d_15_415" x="212" y="327" width="1038" height="68" filterUnits="userSpaceOnUse" color-interpolation-filters="sRGB">
<feFlood flood-opacity="0" result="BackgroundImageFix"/>
<feColorMatrix in="SourceAlpha" type="matrix" values="0 0 0 0 0 0 0 0 0 0 0 0 0 0 0 0 0 0 127 0" result="hardAlpha"/>
<feOffset dy="4"/>
<feGaussianBlur stdDeviation="2"/>
<feComposite in2="hardAlpha" operator="out"/>
<feColorMatrix type="matrix" values="0 0 0 0 0 0 0 0 0 0 0 0 0 0 0 0 0 0 0.25 0"/>
<feBlend mode="normal" in2="BackgroundImageFix" result="effect1_dropShadow_15_415"/>
<feBlend mode="normal" in="SourceGraphic" in2="effect1_dropShadow_15_415" result="shape"/>
</filter>
<clipPath id="clip0_15_415">
<rect width="1349" height="643" fill="white"/>
</clipPath>
</defs>
</svg>
