<svg width="1349" height="643" viewBox="0 0 1349 643" fill="none" xmlns="http://www.w3.org/2000/svg">
<g clip-path="url(#clip0_15_475)">
<rect width="1349" height="643" fill="#F3F4F6"/>
<rect width="30" height="643" fill="#5EEAD4"/>
<rect width="16.0866" height="4.28975" rx="2.14487" transform="matrix(0.659589 0.751626 -0.659589 0.751626 10.8295 309)" fill="#1F2937"/>
<rect width="16.0866" height="4.28975" rx="2.14487" transform="matrix(0.659589 -0.751626 0.659589 0.751626 8 330.211)" fill="#1F2937"/>
<path d="M70.576 46.9879V44.4468L74.3879 29.1996L89.635 16.4938L103.612 15.2231L118.859 21.5761L122.67 27.9291L112.506 22.8467H103.612L89.635 31.7408L85.8233 40.635V46.9879H70.576Z" fill="#5EEAD4"/>
<path d="M95.988 66.0468H102.341L108.694 72.3998V81.294L112.506 86.3763L116.266 93.9998H117.409H136.647V53.3913L108.694 53.3409H95.988V66.0468Z" fill="#EF4444"/>
<path d="M136.647 54.6116H123.941V94H136.647V54.6116Z" fill="#F87171"/>
<path d="M87.0939 45.7174H70.576V91.4587H87.0939V73.6703L89.635 69.8586L95.988 67.3174V60.9645L98.5291 57.1526H106.153L117.588 45.7174H87.0939Z" fill="#EF4444"/>
<path d="M75.6583 83.8351H70.576V92.7292H75.6583V83.8351Z" fill="#FECACA"/>
<path d="M84.5527 53.3409V62.2351L87.7291 63.5057L90.9056 60.9645V53.3409H84.5527Z" fill="#F39200"/>
<path d="M107.423 57.2003H95.988V59.6466H107.423V57.2003Z" fill="#1F2937"/>
<path d="M111.235 53.3884H99.7997V55.8347H111.235V53.3884Z" fill="#1F2937"/>
<path d="M115.047 49.5765H103.612V52.0229H115.047V49.5765Z" fill="#1F2937"/>
<path d="M90.9055 53.3409V60.3292C90.9055 62.0836 89.4834 63.5057 87.7291 63.5057C85.9747 63.5057 84.5526 62.0836 84.5526 60.3292V53.3409" fill="#FECACA"/>
<path d="M87.7291 64.7289C85.3032 64.7289 83.3295 62.7551 83.3295 60.3291V53.3408H85.7758V60.3291C85.7758 61.4062 86.6521 62.2826 87.7291 62.2826C88.8061 62.2826 89.6824 61.4063 89.6824 60.3291V53.3408H92.1287V60.3291C92.1287 62.7551 90.155 64.7289 87.7291 64.7289Z" fill="#1F2937"/>
<path d="M79.4702 61.012H75.6585V63.4583H79.4702V61.012Z" fill="white"/>
<path d="M69.3529 93.9524H88.3169V77.4822C88.3169 73.2523 91.758 69.8112 95.9879 69.8112H97.211V60.9645H94.7647V67.4384C89.7609 68.0443 85.8706 72.3175 85.8706 77.4822V91.5061H76.8817V83.8825H73.1173V86.3288H74.4354V91.5061H71.7992V60.917H80.7408V58.4707H71.7992V48.2112H118.859V45.7649H69.3529V93.9524Z" fill="#1F2937"/>
<path d="M130.247 44.4467C130.247 44.25 130.244 44.0538 130.239 43.8584C129.924 27.3407 116.391 14 99.7997 14C83.0113 14 69.3529 27.6584 69.3529 44.4467H71.7992C71.7992 44.0049 71.8108 43.5657 71.8312 43.1287H80.7408V40.6824H72.0531C72.1151 40.2237 72.188 39.7685 72.2718 39.3169H78.1996V36.8706H72.8413C72.9708 36.4107 73.1111 35.9553 73.2633 35.5052H75.6585V33.0589H74.2219C78.5933 23.2789 88.4131 16.4463 99.7997 16.4463C108.18 16.4463 115.711 20.1477 120.847 26.0005C117.077 23.2497 112.437 21.6235 107.423 21.6235C94.8384 21.6235 84.6001 31.8618 84.6001 44.4467H87.0464C87.0464 33.2107 96.1875 24.0698 107.423 24.0698C118.484 24.0698 127.514 32.9275 127.794 43.9215C127.797 44.0963 127.8 44.2712 127.8 44.4468L130.247 44.4467Z" fill="#1F2937"/>
<path d="M136.647 53.3884H113.776V55.8347H136.647V53.3884Z" fill="#1F2937"/>
<path d="M109.917 82.5647H107.471V74.941C107.471 70.7113 104.03 67.2702 99.7997 67.2702V64.8239C105.378 64.8239 109.917 69.3624 109.917 74.941V82.5647Z" fill="#1F2937"/>
<path d="M113.729 80.0234H111.283V86.3763H113.729V80.0234Z" fill="#1F2937"/>
<path d="M117.541 85.1057H115.094V93.9999H117.541V85.1057Z" fill="#1F2937"/>
<path d="M237.344 124.703H260.16V134.371H255.344L243.074 178H227.887L219.836 144.742L211.609 178H196.562L184.082 134.371H178.703V124.703H201.555V134.371H196L203.84 163.094L213.297 124.809H226.375L235.656 163.094L243.531 134.371H237.344V124.703ZM263.43 159.648C263.43 157 263.91 154.516 264.871 152.195C265.832 149.875 267.168 147.848 268.879 146.113C270.59 144.379 272.629 143.008 274.996 142C277.363 140.992 279.965 140.488 282.801 140.488C285.637 140.488 288.238 140.992 290.605 142C292.996 143.008 295.047 144.379 296.758 146.113C298.469 147.848 299.793 149.875 300.73 152.195C301.691 154.516 302.172 157 302.172 159.648C302.172 162.297 301.703 164.793 300.766 167.137C299.852 169.457 298.539 171.496 296.828 173.254C295.141 174.988 293.102 176.359 290.711 177.367C288.344 178.375 285.707 178.879 282.801 178.879C279.871 178.879 277.211 178.375 274.82 177.367C272.453 176.359 270.426 174.988 268.738 173.254C267.051 171.52 265.738 169.492 264.801 167.172C263.887 164.828 263.43 162.32 263.43 159.648ZM273.941 159.648C273.941 161.031 274.176 162.309 274.645 163.48C275.113 164.629 275.746 165.625 276.543 166.469C277.363 167.312 278.301 167.969 279.355 168.438C280.434 168.906 281.582 169.141 282.801 169.141C284.043 169.141 285.191 168.918 286.246 168.473C287.324 168.004 288.25 167.348 289.023 166.504C289.82 165.66 290.441 164.664 290.887 163.516C291.332 162.344 291.555 161.055 291.555 159.648C291.555 158.195 291.332 156.883 290.887 155.711C290.441 154.539 289.82 153.543 289.023 152.723C288.25 151.902 287.324 151.281 286.246 150.859C285.191 150.414 284.043 150.203 282.801 150.227C281.582 150.203 280.434 150.414 279.355 150.859C278.301 151.281 277.363 151.902 276.543 152.723C275.746 153.543 275.113 154.539 274.645 155.711C274.176 156.883 273.941 158.195 273.941 159.648ZM340.562 154.832H330.684V151.07C329.723 151.07 328.844 151.141 328.047 151.281C327.25 151.398 326.547 151.609 325.938 151.914C325.352 152.219 324.848 152.641 324.426 153.18C324.027 153.719 323.746 154.387 323.582 155.184V168.367H331V178H307.234V168.367H312.684V151.211H307.305V141.578H323.512V144.145C324.543 143.324 325.703 142.691 326.992 142.246C328.281 141.801 329.688 141.578 331.211 141.578C332.758 141.578 334.352 141.59 335.992 141.613C337.633 141.637 339.156 141.648 340.562 141.648V154.832ZM345.801 123.297H362.219V154.832H368.371L370.902 151.211V141.578H389.746V151.211H383.207L376.422 159.051L383.348 167.418H389.395V178H379.516L367.703 162.391H362.219V168.367H365.945V178H345.801V168.367H351.426V132.93H345.801V123.297ZM420.754 152.723C420.754 152.16 420.566 151.621 420.191 151.105C419.84 150.59 419.312 150.145 418.609 149.77C417.906 149.371 417.039 149.055 416.008 148.82C415 148.586 413.852 148.469 412.562 148.469C412.07 148.469 411.543 148.516 410.98 148.609C410.418 148.68 409.891 148.82 409.398 149.031C408.93 149.242 408.531 149.535 408.203 149.91C407.898 150.262 407.746 150.719 407.746 151.281C407.746 151.562 407.781 151.832 407.852 152.09C407.945 152.348 408.109 152.594 408.344 152.828C408.578 153.062 408.895 153.285 409.293 153.496C409.715 153.684 410.254 153.836 410.91 153.953L417.52 155.254C419.91 155.723 421.914 156.309 423.531 157.012C425.148 157.715 426.449 158.535 427.434 159.473C428.418 160.41 429.121 161.453 429.543 162.602C429.988 163.75 430.211 164.992 430.211 166.328C430.211 168.414 429.719 170.242 428.734 171.812C427.773 173.383 426.496 174.695 424.902 175.75C423.332 176.781 421.551 177.555 419.559 178.07C417.59 178.609 415.598 178.879 413.582 178.879C412.27 178.879 411.074 178.797 409.996 178.633C408.941 178.469 407.98 178.246 407.113 177.965C406.27 177.684 405.508 177.355 404.828 176.98C404.172 176.582 403.562 176.148 403 175.68H396.637V165.906H406.586V166.117C406.609 166.797 406.82 167.395 407.219 167.91C407.617 168.402 408.133 168.824 408.766 169.176C409.422 169.527 410.16 169.797 410.98 169.984C411.801 170.148 412.668 170.23 413.582 170.23C415.691 170.23 417.227 169.961 418.188 169.422C419.148 168.859 419.629 168.145 419.629 167.277C419.629 166.598 419.395 166.023 418.926 165.555C418.457 165.062 417.625 164.676 416.43 164.395L409.68 162.953C405.438 162.133 402.238 160.773 400.082 158.875C397.926 156.953 396.848 154.492 396.848 151.492C396.848 149.734 397.258 148.141 398.078 146.711C398.898 145.258 400.012 144.027 401.418 143.02C402.824 141.988 404.465 141.191 406.34 140.629C408.238 140.066 410.266 139.785 412.422 139.785C413.898 139.785 415.211 139.879 416.359 140.066C417.508 140.23 418.539 140.453 419.453 140.734C420.367 141.016 421.164 141.355 421.844 141.754C422.547 142.129 423.168 142.527 423.707 142.949H429.824V152.723H420.754Z" fill="#1F2937"/>
<g filter="url(#filter0_d_15_475)">
<path d="M272 231C272 222.163 279.163 215 288 215H515C523.837 215 531 222.163 531 231V528C531 536.837 523.837 544 515 544H288C279.163 544 272 536.837 272 528V231Z" fill="#C4C4C4"/>
<path d="M920 231C920 222.163 927.163 215 936 215H1163C1171.84 215 1179 222.163 1179 231V528C1179 536.837 1171.84 544 1163 544H936C927.163 544 920 536.837 920 528V231Z" fill="#C4C4C4"/>
<path d="M596 231C596 222.163 603.163 215 612 215H839C847.837 215 855 222.163 855 231V528C855 536.837 847.837 544 839 544H612C603.163 544 596 536.837 596 528V231Z" fill="#C4C4C4"/>
</g>
<g filter="url(#filter1_d_15_475)">
<path d="M272 625C272 616.163 279.163 609 288 609H515C523.837 609 531 616.163 531 625V922C531 930.837 523.837 938 515 938H288C279.163 938 272 930.837 272 922V625Z" fill="#C4C4C4"/>
<path d="M920 625C920 616.163 927.163 609 936 609H1163C1171.84 609 1179 616.163 1179 625V922C1179 930.837 1171.84 938 1163 938H936C927.163 938 920 930.837 920 922V625Z" fill="#C4C4C4"/>
<path d="M596 625C596 616.163 603.163 609 612 609H839C847.837 609 855 616.163 855 625V922C855 930.837 847.837 938 839 938H612C603.163 938 596 930.837 596 922V625Z" fill="#C4C4C4"/>
</g>
<rect x="272" y="230" width="256" height="26" fill="#F3F4F6"/>
<rect width="7.17997" height="1.91466" rx="0.95733" transform="matrix(0.704811 0.709395 -0.704811 0.709395 513.349 239.038)" fill="#1F2937"/>
<rect width="7.17997" height="1.91466" rx="0.95733" transform="matrix(0.704811 -0.709395 0.704811 0.709395 512 244.094)" fill="#1F2937"/>
<rect x="499" y="240" width="5" height="5" rx="1" stroke="#1F2937" stroke-width="2"/>
<line x1="485.5" y1="242.5" x2="490.5" y2="242.5" stroke="#1F2937" stroke-width="3" stroke-linecap="round"/>
<path d="M287 238L292.196 244.429H281.804L287 238Z" fill="#1F2937"/>
<path d="M288.886 243.829H291.629L291.421 246.842L288.886 247.257V243.829Z" fill="#1F2937"/>
<path d="M282.371 243.829H285.114V247.257L282.371 246.526V243.829Z" fill="#1F2937"/>
</g>
<defs>
<filter id="filter0_d_15_475" x="268" y="215" width="915" height="337" filterUnits="userSpaceOnUse" color-interpolation-filters="sRGB">
<feFlood flood-opacity="0" result="BackgroundImageFix"/>
<feColorMatrix in="SourceAlpha" type="matrix" values="0 0 0 0 0 0 0 0 0 0 0 0 0 0 0 0 0 0 127 0" result="hardAlpha"/>
<feOffset dy="4"/>
<feGaussianBlur stdDeviation="2"/>
<feComposite in2="hardAlpha" operator="out"/>
<feColorMatrix type="matrix" values="0 0 0 0 0 0 0 0 0 0 0 0 0 0 0 0 0 0 0.25 0"/>
<feBlend mode="normal" in2="BackgroundImageFix" result="effect1_dropShadow_15_475"/>
<feBlend mode="normal" in="SourceGraphic" in2="effect1_dropShadow_15_475" result="shape"/>
</filter>
<filter id="filter1_d_15_475" x="268" y="609" width="915" height="337" filterUnits="userSpaceOnUse" color-interpolation-filters="sRGB">
<feFlood flood-opacity="0" result="BackgroundImageFix"/>
<feColorMatrix in="SourceAlpha" type="matrix" values="0 0 0 0 0 0 0 0 0 0 0 0 0 0 0 0 0 0 127 0" result="hardAlpha"/>
<feOffset dy="4"/>
<feGaussianBlur stdDeviation="2"/>
<feComposite in2="hardAlpha" operator="out"/>
<feColorMatrix type="matrix" values="0 0 0 0 0 0 0 0 0 0 0 0 0 0 0 0 0 0 0.25 0"/>
<feBlend mode="normal" in2="BackgroundImageFix" result="effect1_dropShadow_15_475"/>
<feBlend mode="normal" in="SourceGraphic" in2="effect1_dropShadow_15_475" result="shape"/>
</filter>
<clipPath id="clip0_15_475">
<rect width="1349" height="643" fill="white"/>
</clipPath>
</defs>
</svg>
